<?xml version="1.0" encoding="UTF-8"?>
<svg id="Layer_1" data-name="Layer 1" xmlns="http://www.w3.org/2000/svg" viewBox="0 0 329.5 508.5">
  <defs>
    <style>
      .cls-1 {
        fill: #fff;
      }

      .cls-2 {
        fill: #006837;
      }

      .cls-2, .cls-3, .cls-4, .cls-5 {
        stroke: #fff;
        stroke-miterlimit: 10;
      }

      .cls-3 {
        fill: #e6e6e6;
      }

      .cls-4 {
        fill: #39b54a;
      }

      .cls-5 {
        fill: #22b573;
      }
    </style>
  </defs>
  <path class="cls-4" d="m260.68,475.41c-1.33-9.49,3.48-18.54,9.23-25.85,10.43-13.23,26.7-19.32,43.18-21l-10.46-367.62L6.02,64.5l.71,368.51c25.41,5.11,40.05,29.43,45.15,53.52l211.59-2.21c-1.33-2.84-2.35-5.79-2.79-8.91Z"/>
  <path class="cls-2" d="m131.51,161.8c-8.37,1.29-17.8,2.74-27.81,7.71-21.63,10.73-31.43,30.65-38.5,45.54-5.63,11.85-26.94,56.71-9.98,110,4.67,14.68,12.94,40.66,39.22,60.25,31.82,23.73,66.99,20.87,72.73,20.32,5.52-.53,48.24-5.35,73.44-41.34,17.2-24.56,16.45-49.67,15.69-74.97-.52-17.46-2.32-58.14-31.37-93.18-8.14-9.81-20.26-24.06-41.36-31.53-21.3-7.54-41.32-4.46-52.05-2.8Z"/>
  <path class="cls-2" d="m299.5,58.51c-.16-.32-.32-.64-.48-.96l-26.02-48.46H39.07L4.59,65.11l296.62-3.48-1.42-2.65c-.1-.15-.2-.3-.29-.48Z"/>
  <g>
    <path class="cls-3" d="m129.07,107.09c0,3.81-2.21,6.5-6.62,8.07,1.6.49,2.91,1.03,3.94,1.62,3.08,1.76,4.62,4.39,4.62,7.9s-1.35,6.17-4.05,8.21c-2.7,2.04-6.31,3.05-10.84,3.05-1.64,0-3.71-.09-6.22-.28s-4.36-.28-5.53-.28c-1.03,0-2,.06-2.91.17l-2.68.34c-.08,0-.21.02-.4.06h-.4c-1.64-.04-2.45-.71-2.45-2.02,0-1.2.59-1.79,1.77-1.79.3,0,.82.06,1.54.17.49.07.89.11,1.2.11,1.94,0,2.91-1.38,2.91-4.15v-22.53c0-2.8-.97-4.2-2.91-4.2-.34,0-.74.04-1.2.11-.68.11-1.2.17-1.54.17-1.18,0-1.77-.6-1.77-1.79,0-1.31.87-1.96,2.62-1.96h.74l2.79.39c.8.11,1.88.17,3.25.17,1.44,0,3.5-.11,6.16-.34,1.79-.15,3.71-.22,5.76-.22,3.84,0,6.83.79,8.98,2.38,2.15,1.59,3.22,3.8,3.22,6.64Zm-21.85,2.41c0,1.98.18,3.21.54,3.67s1.36.7,3,.7h3.19c6.73,0,10.1-2.15,10.1-6.45,0-3.92-2.78-5.88-8.33-5.88-3.88,0-6.27.24-7.16.73-.89.49-1.34,1.74-1.34,3.76v3.47Zm0,11.38v6.22c0,2.43.42,3.92,1.25,4.48.84.56,3.12.84,6.85.84,7.11,0,10.67-2.62,10.67-7.85,0-4.82-3.42-7.23-10.27-7.23h-4.73c-2.05,0-3.23.45-3.54,1.34-.15.45-.23,1.18-.23,2.19Z"/>
    <path class="cls-3" d="m161.98,119.19c0,1.42-.1,2.29-.29,2.61-.19.32-.74.48-1.65.48h-18.14c-.5,0-.82.07-.97.2-.15.13-.23.35-.23.64,0,2.8.86,5.14,2.57,7.01,1.71,1.87,3.84,2.8,6.39,2.8,1.67,0,3.2-.45,4.59-1.34,1.39-.9,2.29-2.04,2.71-3.42l.51-1.62c.27-.9.89-1.35,1.88-1.35,1.41,0,2.11.71,2.11,2.13,0,2.43-1.25,4.59-3.76,6.47s-5.36,2.83-8.56,2.83c-3.99,0-7.17-1.32-9.53-3.95-2.36-2.63-3.54-6.17-3.54-10.62s1.25-8.26,3.76-11.1c2.51-2.84,5.78-4.26,9.81-4.26,3.57,0,6.52,1.18,8.84,3.53,2.32,2.35,3.48,5.34,3.48,8.97Zm-20.71-1.46c0,.52.42.78,1.25.78h13.63c.8,0,1.2-.26,1.2-.78,0-1.98-.76-3.7-2.28-5.16-1.52-1.46-3.31-2.19-5.36-2.19s-4.07.76-5.82,2.27c-1.75,1.51-2.62,3.21-2.62,5.07Z"/>
    <path class="cls-3" d="m192.1,119.19c0,1.42-.09,2.29-.29,2.61-.19.32-.74.48-1.65.48h-18.14c-.49,0-.82.07-.97.2-.15.13-.23.35-.23.64,0,2.8.86,5.14,2.57,7.01,1.71,1.87,3.84,2.8,6.39,2.8,1.67,0,3.2-.45,4.59-1.34,1.39-.9,2.29-2.04,2.71-3.42l.51-1.62c.27-.9.89-1.35,1.88-1.35,1.41,0,2.11.71,2.11,2.13,0,2.43-1.26,4.59-3.77,6.47s-5.36,2.83-8.56,2.83c-3.99,0-7.17-1.32-9.53-3.95-2.36-2.63-3.54-6.17-3.54-10.62s1.25-8.26,3.76-11.1c2.51-2.84,5.78-4.26,9.81-4.26,3.57,0,6.52,1.18,8.84,3.53,2.32,2.35,3.48,5.34,3.48,8.97Zm-20.71-1.46c0,.52.42.78,1.25.78h13.63c.8,0,1.2-.26,1.2-.78,0-1.98-.76-3.7-2.28-5.16-1.52-1.46-3.31-2.19-5.36-2.19s-4.07.76-5.82,2.27c-1.75,1.51-2.62,3.21-2.62,5.07Z"/>
    <path class="cls-3" d="m204.94,109.24v1.54c1.98-2.73,4.62-4.09,7.93-4.09,2.66,0,4.82.74,6.47,2.21s2.48,3.37,2.48,5.69c0,1.64-.42,2.98-1.25,4.01-.84,1.03-1.94,1.54-3.31,1.54-.88,0-1.62-.26-2.22-.78-.61-.52-.91-1.16-.91-1.91,0-.6.23-1.13.68-1.6.46-.47.99-.7,1.6-.7.11,0,.36.06.74.17.23-.45.34-.86.34-1.23,0-1.08-.49-2-1.46-2.75-.97-.75-2.18-1.12-3.62-1.12-2.97,0-4.94,1.31-5.93,3.92-.61,1.61-.91,4.04-.91,7.29v3.7c0,2.5.02,3.91.06,4.2.19,2.13.78,3.19,1.77,3.19.49,0,1.01-.06,1.54-.19.42-.1.78-.14,1.08-.14,1.22,0,1.83.59,1.83,1.77,0,1.29-.78,1.93-2.33,1.93h-.23c-.57,0-1.43-.06-2.59-.2s-2.02-.2-2.59-.2c-1.52,0-2.71.04-3.58.11l-3.18.28c-1.55,0-2.33-.65-2.33-1.96,0-1.16.73-1.74,2.19-1.74.38,0,.67.02.86.06l.86.17c.38.08.65.11.81.11.96,0,1.48-.86,1.55-2.58v-2.86l-.17-12.72c-.11-2.2-.68-3.31-1.71-3.31-.3,0-.72.06-1.25.17-.53.11-.95.17-1.25.17-1.25,0-1.88-.6-1.88-1.79,0-1.31.82-1.96,2.45-1.96.38,0,.95.05,1.71.14s1.33.14,1.71.14c.3,0,.8-.05,1.48-.14.3-.09.67-.14,1.08-.14.99,0,1.48.53,1.48,1.6Z"/>
  </g>
  <path class="cls-2" d="m8.46,433.93c.16.42.33.84.49,1.26l26.68,63.98,242.01.87,35.94-73.72-306.88,3.48,1.46,3.49c.1.19.21.4.3.63Z"/>
  <path class="cls-5" d="m135.44,177.96c-6.84,1.12-14.56,2.37-22.74,6.68-17.69,9.29-25.7,26.55-31.49,39.45-4.6,10.26-22.04,49.12-8.16,95.28,3.82,12.71,10.59,35.22,32.07,52.19,26.03,20.55,54.79,18.08,59.48,17.6,4.51-.46,39.46-4.64,60.07-35.81,14.07-21.28,13.45-43.03,12.83-64.94-.43-15.13-1.9-50.36-25.66-80.71-6.66-8.5-16.57-20.84-33.82-27.31-17.42-6.53-33.79-3.86-42.57-2.43Z"/>
  <path class="cls-1" d="m24.73,102.76c6.43,0,6.45-10,0-10s-6.45,10,0,10h0Z"/>
  <path class="cls-1" d="m24.73,122.47c6.43,0,6.45-10,0-10s-6.45,10,0,10h0Z"/>
  <path class="cls-1" d="m19.06,132.25c1.03,47.31.68,94.63-1.03,141.92-.23,6.44,9.77,6.43,10,0,1.71-47.29,2.05-94.61,1.03-141.92-.14-6.43-10.14-6.45-10,0h0Z"/>
  <path class="cls-1" d="m19.72,412.17c.88,11.91-1.71,23.23,3.38,34.54,5.16,11.49,11.34,22.61,17.02,33.85,2.9,5.74,11.53.69,8.63-5.05-5.13-10.16-10.33-20.28-15.4-30.47-2.63-5.29-3.86-10.21-3.82-16.15.03-5.59.6-11.14.19-16.73-.47-6.38-10.47-6.43-10,0h0Z"/>
  <path class="cls-1" d="m213.7,251.38c4.48,23.98,3.29,48.58-3.25,72.07-1.73,6.21,7.92,8.86,9.64,2.66,7.03-25.28,8.05-51.62,3.25-77.39-1.18-6.32-10.82-3.64-9.64,2.66h0Z"/>
</svg>