<?xml version="1.0" encoding="UTF-8"?>
<svg id="Layer_1" data-name="Layer 1" xmlns="http://www.w3.org/2000/svg" viewBox="0 0 638.25 287.75">
  <defs>
    <style>
      .cls-1, .cls-2 {
        fill: #fff;
      }

      .cls-3 {
        fill: #90714f;
      }

      .cls-3, .cls-2, .cls-4, .cls-5 {
        stroke: #fff;
        stroke-miterlimit: 10;
      }

      .cls-4 {
        fill: #c69c6d;
      }

      .cls-5 {
        fill: #a67c52;
      }
    </style>
  </defs>
  <path class="cls-2" d="m403.69,236.65c2.12-18.83-.26-31.64-1.77-44.81-4.99-43.59,5.13-43.55,0-88.47-1.37-12.01-3.37-23.11,2.66-36.38,2.25-4.97,8.28-18.24,23.46-24.51,18.14-7.49,41.5-1.75,54.88,8.43,10.65,8.1,12.46,17.12,19.47,16.85,6.61-.25,7.85-8.37,18.59-17.62,3.55-3.06,15.42-13.27,31.86-14.55,18.38-1.43,36.17,8.79,44.26,21.06,6.34,9.62,5.92,19.3,5.75,23.74-3.33,86.23-4.99,129.35,1.77,154.72,1.22,4.58,2.97,10.21,0,16.08-2.2,4.35-11.14,17.05-92.49,16.85-45.36-.11-102.68-.25-109.31-19.53-.92-2.68-.07-3.42.89-11.87Z"/>
  <path class="cls-4" d="m17.2,246.72c2.12-18.83-.26-31.64-1.77-44.81-4.99-43.59,5.13-43.55,0-88.47-1.37-12.01-3.37-23.11,2.66-36.38,2.25-4.97,8.28-18.24,23.46-24.51,18.14-7.49,41.5-1.75,54.88,8.43,10.65,8.1,12.46,17.12,19.47,16.85,6.61-.25,7.85-8.37,18.59-17.62,3.55-3.06,15.42-13.27,31.86-14.55,18.38-1.43,36.17,8.79,44.26,21.06,6.34,9.62,5.92,19.3,5.75,23.74-3.33,86.23-4.99,129.35,1.77,154.72,1.22,4.58,2.97,10.21,0,16.08-2.2,4.35-11.14,17.05-92.49,16.85-45.36-.11-102.68-.25-109.31-19.53-.92-2.68-.07-3.42.89-11.87Z"/>
  <path class="cls-5" d="m162.81,9.3c133.76,4.67,267.52,9.33,401.28,14-5.33,3-10.67,6-16,9-5.94,1.33-11.88,2.66-17.82,3.98l-7.22,8.55c-11.65,12.82-23.31,25.65-34.97,38.47-4.67-8.67-9.33-17.33-14-26-5-2.67-10-5.33-15-8-2.67-4-5.33-8-8-12-1.67-.33-3.33-.67-5-1-3.33.67-6.67,1.33-10,2-4.59.15-9.18.3-13.77.45l-11.78,24.06-1.8,18.24,2.18,25.38.74,20.49-.87,16.57-2.09,23.34.15,14.34,1.31,18.8,1.58,14.98.98,24.72-.77,12.05-.89,13.71,9.97,11.07,8.42,3.69H80.42l-48.56-2.37H14.14l-2.69-22.56,1.73-28.62-2.62-36.84-1.46-36.13,2.93-34.92-2.56-42.23,1.69-24.69,14.29-26.31,11.46-8.25,19.9-4.53,14.44,3.25,14.44,6.5,6.59,4.51,7.19,7.2,7.7,1.95,11.16-1.33,12.35-8.71,11.44-9.47,20.7-7.34Z"/>
  <polygon class="cls-3" points="411.57 92.01 12.15 82.5 13.02 140.42 10.09 170.65 15.02 226.29 12.45 258.6 15.14 278.13 430.47 280.18 411.32 266.65 412.5 233.81 410.4 207.79 409.87 172.11 411.95 129.76 411.57 92.01"/>
  <path class="cls-4" d="m386.83,251.34c2.47-21.35-.3-35.86-2.06-50.79-5.8-49.4,5.96-49.36,0-100.27-1.59-13.61-3.91-26.19,3.08-41.24,2.62-5.63,9.61-20.67,27.24-27.78,21.06-8.49,48.2-1.99,63.74,9.55,12.37,9.19,14.48,19.4,22.62,19.1,7.67-.29,9.11-9.49,21.59-19.97,4.13-3.47,17.91-15.04,37.01-16.49,21.35-1.62,42.01,9.97,51.4,23.87,7.36,10.9,6.88,21.87,6.68,26.91-3.87,97.74-5.8,146.61,2.06,175.37,1.42,5.19,3.45,11.57,0,18.23-2.56,4.94-12.94,19.32-107.43,19.1-52.69-.13-119.25-.28-126.96-22.14-1.07-3.04-.08-3.88,1.03-13.46Z"/>
  <path class="cls-1" d="m175.2,54.12l-.04-.2.18,1.33c-.03-.27-.03-.52,0-.79l-.18,1.33c.04-.2.09-.38.16-.58l-.5,1.19c.05-.13.11-.25.18-.36h-8.63c.06.09.11.19.15.29l-.5-1.19c.08.2.13.4.15.61l-.18-1.33c0,.16,0,.31,0,.47l.18-1.33c-.03.21-.08.41-.16.61l.5-1.19c-.09.2-.2.38-.33.56l.78-1.01c-.15.18-.3.32-.48.47l1.01-.78-.14.1c-1.09.73-1.94,1.69-2.3,2.99-.33,1.2-.18,2.79.5,3.85s1.71,2.01,2.99,2.3c1.26.29,2.74.25,3.85-.5,1.59-1.08,2.85-2.51,3.35-4.41.49-1.88.22-3.85-.74-5.53-1.83-3.2-6.83-3.3-8.63,0-1.01,1.85-1.22,3.74-.8,5.78.24,1.18,1.28,2.39,2.3,2.99,1.07.63,2.65.89,3.85.5s2.38-1.14,2.99-2.3c.65-1.23.79-2.48.5-3.85h0Z"/>
  <path class="cls-1" d="m181.83,66.49c-.54.28-1.03.69-1.47,1.09-.09.08-.16.16-.23.25-.31.37-.64.76-.89,1.17-.31.5-.53,1.06-.69,1.62-.14.47-.17,1.02-.22,1.51-.01.12-.02.24-.01.37.07,1.32.51,2.58,1.46,3.54.45.49.99.83,1.61,1.03.6.31,1.24.46,1.93.43,1.29-.06,2.63-.48,3.54-1.46s1.54-2.21,1.46-3.54c0-.12,0-.24.01-.37l-.18,1.33c.02-.12.06-.24.1-.36l-.5,1.19c.07-.15.14-.28.24-.41l-.78,1.01c.1-.13.22-.24.35-.35l-1.01.78c.11-.08.22-.15.34-.22.58-.31,1.05-.74,1.4-1.29.44-.48.74-1.05.89-1.7.21-.66.24-1.33.09-1.99-.03-.67-.23-1.29-.59-1.86-.69-1.07-1.71-2.01-2.99-2.3l-1.33-.18c-.9,0-1.74.23-2.52.68h0Z"/>
  <path class="cls-1" d="m154.07,71.95c.42-.04.83-.08,1.25-.08.16,0,1.68.13,1,.03s.61.15.76.19c.25.07,1.63.61.54.12,2.39,1.06,5.48.78,6.84-1.79,1.15-2.17.76-5.71-1.79-6.84-2.73-1.21-5.59-1.93-8.6-1.63-2.59.26-5.13,2.11-5,5,.11,2.49,2.21,5.28,5,5h0Z"/>
  <path class="cls-1" d="m130.17,67.68c-2.29-.17-4.82.48-6.73,1.75-2.17,1.45-3.32,4.48-1.79,6.84,1.4,2.17,4.51,3.34,6.84,1.79.38-.25.77-.46,1.19-.64l-1.19.5c.53-.2,1.06-.33,1.61-.41l-1.33.18c.47-.05.93-.05,1.4-.02,2.61.19,5.11-2.44,5-5-.13-2.87-2.2-4.79-5-5h0Z"/>
  <path class="cls-1" d="m84.94,77.04c.91,1.08,1.82,2.16,2.73,3.23.78.93,2.36,1.46,3.54,1.46s2.69-.54,3.54-1.46c.87-.95,1.52-2.2,1.46-3.54s-.57-2.47-1.46-3.54-1.82-2.16-2.73-3.23c-.78-.93-2.36-1.46-3.54-1.46s-2.69.54-3.54,1.46-1.52,2.2-1.46,3.54c.06,1.39.57,2.47,1.46,3.54h0Z"/>
  <path class="cls-1" d="m80.92,64.74c1.01-.12,2-.11,3.01.01l-1.33-.18c.4.06.79.14,1.18.23,2.54.6,5.54-.79,6.15-3.49.58-2.56-.77-5.51-3.49-6.15-1.8-.43-3.68-.63-5.51-.42-1.37.16-2.52.45-3.54,1.46-.87.87-1.52,2.29-1.46,3.54.06,1.29.48,2.63,1.46,3.54.91.84,2.25,1.62,3.54,1.46h0Z"/>
  <path class="cls-1" d="m62.16,52.56c-2.47-1.4-5.5-.88-7.46,1.14-.79.82-1.38,1.85-1.67,2.95-.1.41-.15.82-.3,1.21l.5-1.19c-.04.09-.09.18-.15.26l.78-1.01c-.1.13-.2.23-.33.33-.94.73-1.46,2.42-1.46,3.54,0,1.23.54,2.69,1.46,3.54s2.2,1.52,3.54,1.46l1.33-.18c.85-.24,1.58-.67,2.21-1.29.91-.7,1.51-1.95,1.84-3.02.13-.42.17-.87.31-1.29l-.5,1.19c.07-.15.14-.27.24-.4l-.78,1.01c.11-.12.22-.22.35-.33-.34.26-.67.52-1.01.78.08-.06.17-.11.27-.15l-1.19.5c.09-.04.18-.06.28-.08l-1.33.18c.09-.01.19,0,.28.01l-1.33-.18.14.05-1.19-.5.13.07c1.14.65,2.58.85,3.85.5,1.16-.32,2.42-1.22,2.99-2.3,1.25-2.37.64-5.46-1.79-6.84h0Z"/>
  <path class="cls-1" d="m59.96,69.01c-.17.31-.36.6-.57.89l.78-1.01c-.41.52-.86.98-1.38,1.39l1.01-.78c-.48.37-.99.68-1.53.94-1.08.53-1.99,1.86-2.3,2.99-.33,1.2-.18,2.79.5,3.85.69,1.07,1.71,2.01,2.99,2.3,1.37.31,2.59.11,3.85-.5,2.18-1.07,4.09-2.89,5.27-5.01,1.27-2.29.63-5.56-1.79-6.84-2.35-1.24-5.48-.65-6.84,1.79h0Z"/>
  <path class="cls-1" d="m45.29,78.4c.12-1.09.23-2.19.35-3.28.13-1.19-.65-2.72-1.46-3.54-.87-.87-2.29-1.52-3.54-1.46-1.29.06-2.63.48-3.54,1.46l-.78,1.01c-.45.78-.68,1.62-.68,2.52-.12,1.09-.23,2.19-.35,3.28-.13,1.19.65,2.72,1.46,3.54.87.87,2.29,1.52,3.54,1.46,1.29-.06,2.63-.48,3.54-1.46l.78-1.01c.45-.78.68-1.62.68-2.52h0Z"/>
  <path class="cls-1" d="m28.61,70.27c.19,0,.37.02.56.04l-1.33-.18c.55.08,1.08.21,1.6.42l-1.19-.5c.17.07.33.15.49.23,1.2.61,2.53.87,3.85.5,1.16-.32,2.42-1.22,2.99-2.3.61-1.16.92-2.57.5-3.85-.39-1.2-1.14-2.4-2.3-2.99-1.67-.85-3.29-1.29-5.17-1.38-1.24-.06-2.67.6-3.54,1.46s-1.52,2.29-1.46,3.54c.13,2.82,2.2,4.87,5,5h0Z"/>
  <path class="cls-1" d="m23.35,72.69c-1.34,1.01-2.27,1.88-3.26,3.24-.69.94-1.15,2.04-1.5,3.14-.8,2.49.94,5.57,3.49,6.15,2.74.62,5.29-.83,6.15-3.49.06-.2.13-.39.21-.58l-.5,1.19c.23-.52.51-.99.85-1.45l-.78,1.01c.37-.46.77-.86,1.23-1.23l-1.01.78.18-.13c1.08-.82,1.92-1.63,2.3-2.99.33-1.2.18-2.79-.5-3.85s-1.71-2.01-2.99-2.3c-1.22-.28-2.8-.29-3.85.5h0Z"/>
  <path class="cls-1" d="m157.86,88.33h6.82c2.62,0,5.12-2.3,5-5s-2.2-5-5-5h-6.82c-2.62,0-5.12,2.3-5,5,.12,2.71,2.2,5,5,5h0Z"/>
  <path class="cls-1" d="m150.65,58.68c-.1-.25-.17-.49-.22-.76l.18,1.33c-.03-.27-.03-.52,0-.79l-.18,1.33c.05-.27.12-.51.21-.77l-.5,1.19c.12-.25.25-.48.41-.7l-.78,1.01c.18-.22.38-.41.6-.59.93-.76,1.46-2.39,1.46-3.54,0-1.23-.54-2.69-1.46-3.54s-2.2-1.52-3.54-1.46c-1.4.06-2.45.59-3.54,1.46-2.31,1.87-3.45,5.68-2.29,8.47.52,1.26,1.08,2.27,2.3,2.99,1.07.63,2.65.89,3.85.5s2.38-1.14,2.99-2.3,1.01-2.64.5-3.85h0Z"/>
  <path class="cls-1" d="m193.72,46.04c-1.04.55-2.05,1.3-2.83,2.17-1.12,1.25-1.72,2.36-2.33,3.91-.45,1.13-.08,2.85.5,3.85s1.8,2.03,2.99,2.3c1.28.29,2.72.23,3.85-.5l1.01-.78c.62-.62,1.05-1.36,1.29-2.21l.07-.17-.5,1.19c.2-.45.44-.86.74-1.25l-.78,1.01c.32-.39.68-.74,1.07-1.05l-1.01.78c.31-.23.64-.44.99-.62,2.32-1.22,3.21-4.64,1.79-6.84-1.52-2.36-4.36-3.1-6.84-1.79h0Z"/>
  <path class="cls-1" d="m202.66,70.56l.04.28-.18-1.33c.08.76.07,1.51-.03,2.27l.18-1.33c-.08.47-.18.93-.32,1.39-.74,2.51.9,5.56,3.49,6.15,2.69.61,5.35-.81,6.15-3.49.66-2.24.62-4.33.31-6.6-.16-1.15-1.35-2.43-2.3-2.99-1.07-.63-2.65-.89-3.85-.5s-2.38,1.14-2.99,2.3l-.5,1.19c-.24.89-.24,1.77,0,2.66h0Z"/>
  <path class="cls-1" d="m198.79,88.66h5.69c2.62,0,5.12-2.3,5-5-.12-2.71-2.2-5-5-5h-5.69c-2.62,0-5.12,2.3-5,5,.12,2.71,2.2,5,5,5h0Z"/>
  <path class="cls-1" d="m244.88,82.02c.05-.13.1-.25.15-.38l-.5,1.19c.21-.44.45-.85.75-1.23l-.78,1.01c.32-.39.67-.73,1.06-1.05l-1.01.78c.47-.36.97-.66,1.51-.91,1.07-.49,2-1.89,2.3-2.99.33-1.2.18-2.79-.5-3.85s-1.71-2.01-2.99-2.3c-1.38-.31-2.57-.09-3.85.5-2.79,1.29-4.71,3.75-5.77,6.57-.43,1.15-.09,2.83.5,3.85.61,1.04,1.8,2.03,2.99,2.3,1.28.29,2.72.23,3.85-.5s1.82-1.71,2.3-2.99h0Z"/>
  <path class="cls-1" d="m236.21,67.57l-.76-1.97c-.15-.65-.45-1.22-.89-1.7-.35-.54-.82-.97-1.4-1.29-1.07-.63-2.65-.89-3.85-.5s-2.38,1.14-2.99,2.3c-.59,1.12-.98,2.62-.5,3.85.25.66.51,1.31.76,1.97.15.65.45,1.22.89,1.7.35.54.82.97,1.4,1.29,1.07.63,2.65.89,3.85.5s2.38-1.14,2.99-2.3.98-2.62.5-3.85h0Z"/>
  <path class="cls-1" d="m229.11,60.12c2.4,0,4.8,0,7.2,0,2.62,0,5.12-2.3,5-5s-2.2-5-5-5c-2.4,0-4.8,0-7.2,0-2.62,0-5.12,2.3-5,5s2.2,5,5,5h0Z"/>
  <path class="cls-1" d="m269.29,50.4c-1.68.07-3.38.46-4.81,1.37-1.3.82-2.62,2.03-3.25,3.47-.56,1.28-.89,2.45-.5,3.85.32,1.16,1.22,2.42,2.3,2.99,1.16.61,2.57.92,3.85.5,1.16-.37,2.48-1.13,2.99-2.3.11-.25.23-.47.39-.69l-.78,1.01c.22-.28.45-.51.72-.74l-1.01.78c.29-.22.59-.39.92-.55l-1.19.5c.41-.17.83-.29,1.27-.35l-1.33.18c.15-.02.3-.03.45-.03,2.61-.11,5.12-2.22,5-5-.12-2.61-2.2-5.12-5-5h0Z"/>
  <path class="cls-1" d="m264.56,74.34l.15.06-1.19-.5c.29.13.56.29.82.48l-1.01-.78c.24.2.45.41.65.65-.26-.34-.52-.67-.78-1.01.15.2.27.41.38.64l-.5-1.19c.09.23.16.45.2.69l-.18-1.33.02.14c-.03.69.12,1.33.43,1.93.2.62.55,1.16,1.03,1.61.87.87,2.29,1.52,3.54,1.46,1.29-.06,2.63-.48,3.54-1.46.83-.91,1.62-2.25,1.46-3.54-.09-.75-.13-1.47-.4-2.16-.48-1.25-.85-1.87-1.71-2.9-1.01-1.21-2.35-1.85-3.78-2.41-1.13-.45-2.85-.08-3.85.5s-2.03,1.8-2.3,2.99c-.29,1.28-.23,2.72.5,3.85l.78,1.01c.62.62,1.36,1.05,2.21,1.29h0Z"/>
  <path class="cls-1" d="m259.05,79.64h-1.52c-1.28,0-2.63.56-3.54,1.46-.49.45-.83.99-1.03,1.61-.31.6-.46,1.24-.43,1.93.06,1.29.48,2.63,1.46,3.54.98.9,2.18,1.46,3.54,1.46h1.52c1.28,0,2.63-.56,3.54-1.46.49-.45.83-.99,1.03-1.61.31-.6.46-1.24.43-1.93-.06-1.29-.48-2.63-1.46-3.54-.98-.9-2.18-1.46-3.54-1.46h0Z"/>
  <path class="cls-1" d="m281.99,90.1c.86.14,1.71.3,2.58.2.59-.07,1.21-.12,1.79-.28.61-.17,1.2-.46,1.77-.72,1.07-.48,2-1.9,2.3-2.99.33-1.2.18-2.79-.5-3.85s-1.71-2.01-2.99-2.3l-1.33-.18c-.9,0-1.74.23-2.52.68l-.14.06,1.19-.5c-.29.12-.58.2-.89.25l1.33-.18c-.37.05-.73.05-1.1,0l1.33.18-.15-.03c-.66-.21-1.33-.24-1.99-.09-.67.03-1.29.23-1.86.59-1.04.61-2.03,1.8-2.3,2.99-.29,1.28-.23,2.72.5,3.85.66,1.03,1.73,2.09,2.99,2.3h0Z"/>
  <path class="cls-1" d="m293.48,72.81c.19,1.15.06-.1.03-.37.04-.59.02-.57-.06.05.03-.21.08-.42.13-.63.04-.17.5-1.34.25-.83s.52-.8.61-.94c1.46-2.18.49-5.63-1.79-6.84-2.52-1.33-5.28-.53-6.84,1.79-2.1,3.14-2.58,6.75-1.97,10.41.43,2.59,3.76,4.26,6.15,3.49,2.79-.9,3.96-3.38,3.49-6.15h0Z"/>
  <path class="cls-1" d="m297.25,63.2l.07.17-.5-1.19c.13.34.22.68.28,1.05l-.18-1.33c.04.36.04.71,0,1.07l.18-1.33c-.02.12-.04.24-.07.35-.28,1.32-.19,2.66.5,3.85.61,1.04,1.8,2.03,2.99,2.3,1.28.29,2.72.23,3.85-.5,1.06-.68,2.03-1.72,2.3-2.99.19-.9.34-1.84.25-2.76-.06-.61-.12-1.26-.28-1.86-.17-.65-.48-1.27-.75-1.88-.47-1.07-1.91-2-2.99-2.3-1.2-.33-2.79-.18-3.85.5s-2.01,1.71-2.3,2.99l-.18,1.33c0,.9.23,1.74.68,2.52h0Z"/>
  <path class="cls-1" d="m318.94,48.8c-1.59.17-2.75.43-4.19,1.15-.9.45-1.8,1.14-2.43,1.93-.86,1.08-1.46,2.1-1.46,3.54,0,1.23.54,2.69,1.46,3.54s2.2,1.52,3.54,1.46c1.24-.06,2.73-.45,3.54-1.46.23-.29.48-.54.78-.76-.34.26-.67.52-1.01.78.31-.22.64-.4.99-.55l-1.19.5c.37-.14.73-.23,1.12-.29l-1.33.18.19-.02c1.37-.15,2.53-.46,3.54-1.46.87-.87,1.52-2.29,1.46-3.54s-.48-2.63-1.46-3.54c-.92-.84-2.24-1.61-3.54-1.46h0Z"/>
  <path class="cls-1" d="m324.88,70.28c-.88.77-1.77,1.53-2.65,2.3s-1.46,2.35-1.46,3.54.54,2.69,1.46,3.54,2.2,1.52,3.54,1.46c1.38-.06,2.49-.56,3.54-1.46.88-.77,1.77-1.53,2.65-2.3s1.46-2.35,1.46-3.54-.54-2.69-1.46-3.54c-.95-.87-2.2-1.52-3.54-1.46s-2.49.56-3.54,1.46h0Z"/>
  <path class="cls-1" d="m310.39,86.88l3.01,1.04c1.18.41,2.8.11,3.85-.5,1.04-.61,2.03-1.8,2.3-2.99.29-1.28.23-2.72-.5-3.85s-1.71-1.86-2.99-2.3l-3.01-1.04c-1.18-.41-2.8-.11-3.85.5-1.04.61-2.03,1.8-2.3,2.99-.29,1.28-.23,2.72.5,3.85s1.71,1.86,2.99,2.3h0Z"/>
  <path class="cls-1" d="m355.17,90.91c.31-.24.64-.43,1-.59l-1.19.5c.42-.17.85-.29,1.3-.36,1.15-.17,2.43-1.34,2.99-2.3.63-1.07.89-2.65.5-3.85s-1.14-2.38-2.3-2.99l-1.19-.5c-.89-.24-1.77-.24-2.66,0-.45.07-.88.18-1.3.36-.77.31-1.53.59-2.19,1.1-.58.31-1.05.74-1.4,1.29-.44.48-.74,1.05-.89,1.7-.33,1.2-.18,2.79.5,3.85s1.71,2.01,2.99,2.3c1.22.28,2.81.29,3.85-.5h0Z"/>
  <path class="cls-1" d="m352.86,75.78c.03-.08.06-.16.09-.24l-.5,1.19c.12-.28.27-.54.45-.79l-.78,1.01c.22-.29.47-.54.76-.77l-1.01.78c.22-.17.46-.32.71-.45,1.08-.56,1.98-1.83,2.3-2.99s.18-2.79-.5-3.85-1.71-2.01-2.99-2.3c-1.35-.31-2.62-.14-3.85.5-.44.23-.81.53-1.21.84s-.78.58-1.1.95c-.97,1.13-1.51,2.04-1.99,3.45-.4,1.18-.11,2.8.5,3.85.61,1.04,1.8,2.03,2.99,2.3,1.28.29,2.72.23,3.85-.5s1.86-1.71,2.3-2.99h0Z"/>
  <path class="cls-1" d="m332.59,63.01l.19.02-1.33-.18c.38.06.74.16,1.09.3l-1.19-.5c.4.17.77.38,1.11.64l-1.01-.78c.19.15.36.31.52.49,1.78,1.92,5.29,1.94,7.07,0,1.89-2.06,1.9-5.02,0-7.07-.66-.71-1.5-1.38-2.39-1.8-1.49-.7-2.45-.91-4.06-1.12-1.18-.15-2.74.67-3.54,1.46-.87.87-1.52,2.29-1.46,3.54.06,1.29.48,2.63,1.46,3.54l1.01.78c.78.45,1.62.68,2.52.68h0Z"/>
  <path class="cls-1" d="m358.91,49.93c-1.55.34-2.84,1.13-4.04,2.13s-1.85,2.3-2.42,3.71c-.45,1.12-.08,2.86.5,3.85s1.8,2.03,2.99,2.3c1.28.29,2.72.23,3.85-.5l1.01-.78c.62-.62,1.05-1.36,1.29-2.21l.06-.15-.5,1.19c.12-.25.25-.48.42-.7l-.78,1.01c.22-.27.45-.5.72-.71l-1.01.78c.29-.21.59-.38.91-.53l-1.19.5c.28-.11.56-.2.86-.26,1.19-.26,2.39-1.27,2.99-2.3s.89-2.65.5-3.85c-.87-2.69-3.41-4.09-6.15-3.49h0Z"/>
  <path class="cls-1" d="m365.8,69.12c.25.37.47.75.66,1.16l-.5-1.19c.2.49.34.98.43,1.5l-.18-1.33c.05.43.07.85.04,1.29-.16,2.62,2.41,5.12,5,5,2.84-.13,4.83-2.2,5-5,.13-2.22-.55-4.63-1.81-6.47-.75-1.09-1.68-1.94-2.99-2.3-1.2-.33-2.79-.18-3.85.5-2.14,1.38-3.38,4.54-1.79,6.84h0Z"/>
  <path class="cls-1" d="m372.38,84.72h4.55c2.62,0,5.12-2.3,5-5-.12-2.71-2.2-5-5-5h-4.55c-2.62,0-5.12,2.3-5,5,.12,2.71,2.2,5,5,5h0Z"/>
  <path class="cls-1" d="m382.24,67.01h.38c.69.03,1.33-.12,1.93-.43.62-.2,1.16-.55,1.61-1.03.49-.45.83-.99,1.03-1.61.31-.6.46-1.24.43-1.93l-.18-1.33c-.24-.85-.67-1.58-1.29-2.21l-1.01-.78c-.78-.45-1.62-.68-2.52-.68h-.38c-.69-.03-1.33.12-1.93.43-.62.2-1.16.55-1.61,1.03-.49.45-.83.99-1.03,1.61-.31.6-.46,1.24-.43,1.93l.18,1.33c.24.85.67,1.58,1.29,2.21l1.01.78c.78.45,1.62.68,2.52.68h0Z"/>
  <path class="cls-1" d="m133.11,87.47c1.76.13,3.59-.1,5.28-.6,2.51-.74,4.33-3.55,3.49-6.15-.82-2.54-3.46-4.28-6.15-3.49-.55.16-1.1.28-1.67.36l1.33-.18c-.76.09-1.52.11-2.29.05-2.61-.19-5.11,2.44-5,5,.13,2.87,2.2,4.79,5,5h0Z"/>
  <path class="cls-1" d="m101.93,75.64v2.99c0,1.28.56,2.63,1.46,3.54s2.29,1.52,3.54,1.46c2.71-.12,5-2.2,5-5v-2.99c0-1.28-.56-2.63-1.46-3.54s-2.29-1.52-3.54-1.46c-2.71.12-5,2.2-5,5h0Z"/>
  <path class="cls-1" d="m78.84,78.63v-1.71c0-1.28-.56-2.63-1.46-3.54-.45-.49-.99-.83-1.61-1.03-.6-.31-1.24-.46-1.93-.43-1.29.06-2.63.48-3.54,1.46s-1.46,2.18-1.46,3.54v1.71c0,1.28.56,2.63,1.46,3.54.45.49.99.83,1.61,1.03.6.31,1.24.46,1.93.43,1.29-.06,2.63-.48,3.54-1.46.9-.98,1.46-2.18,1.46-3.54h0Z"/>
  <path class="cls-1" d="m38.68,63.79c.19.18.36.38.52.58l-.78-1.01c.27.36.49.73.67,1.15l-.5-1.19c.14.35.24.7.3,1.07l-.18-1.33.02.18c-.03.69.12,1.33.43,1.93.2.62.55,1.16,1.03,1.61.87.87,2.29,1.52,3.54,1.46s2.63-.48,3.54-1.46c.83-.9,1.63-2.26,1.46-3.54-.09-.68-.13-1.39-.32-2.05s-.5-1.35-.8-1.98c-.45-.92-1.13-1.76-1.85-2.48-.91-.91-2.25-1.46-3.54-1.46s-2.69.54-3.54,1.46c-1.83,1.99-1.98,5.1,0,7.07h0Z"/>
  <path class="cls-4" d="m195.03,23.98c-6.43,0-6.45,10,0,10s6.45-10,0-10Z"/>
  <path class="cls-4" d="m235.86,15.96c-6.43,0-6.45,10,0,10s6.45-10,0-10Z"/>
  <path class="cls-4" d="m219.82,57.52c-6.43,0-6.45,10,0,10s6.45-10,0-10Z"/>
  <path class="cls-4" d="m176.8,40.75c-6.43,0-6.45,10,0,10s6.45-10,0-10Z"/>
  <path class="cls-4" d="m176.07,18.87c-6.43,0-6.45,10,0,10s6.45-10,0-10Z"/>
  <path class="cls-4" d="m149.1,25.44c-6.43,0-6.45,10,0,10s6.45-10,0-10Z"/>
  <path class="cls-4" d="m127.95,50.23c-6.43,0-6.45,10,0,10s6.45-10,0-10Z"/>
  <path class="cls-4" d="m95.87,38.56c-6.43,0-6.45,10,0,10s6.45-10,0-10Z"/>
  <path class="cls-4" d="m78.37,26.16c-6.43,0-6.45,10,0,10s6.45-10,0-10Z"/>
  <path class="cls-4" d="m57.23,20.33c-6.43,0-6.45,10,0,10s6.45-10,0-10Z"/>
  <path class="cls-4" d="m49.21,45.85c-6.43,0-6.45,10,0,10s6.45-10,0-10Z"/>
  <path class="cls-4" d="m41.92,29.08c-6.43,0-6.45,10,0,10s6.45-10,0-10Z"/>
  <path class="cls-4" d="m30.98,45.85c-6.43,0-6.45,10,0,10s6.45-10,0-10Z"/>
  <path class="cls-4" d="m63.79,39.29c-6.43,0-6.45,10,0,10s6.45-10,0-10Z"/>
  <path class="cls-4" d="m111.18,54.6c-6.43,0-6.45,10,0,10s6.45-10,0-10Z"/>
  <path class="cls-4" d="m136.7,22.52c-6.43,0-6.45,10,0,10s6.45-10,0-10Z"/>
  <path class="cls-4" d="m238.05,34.91c-6.43,0-6.45,10,0,10s6.45-10,0-10Z"/>
  <path class="cls-4" d="m265.75,61.16c-6.43,0-6.45,10,0,10s6.45-10,0-10Z"/>
  <path class="cls-4" d="m281.06,32.73c-6.43,0-6.45,10,0,10s6.45-10,0-10Z"/>
  <path class="cls-4" d="m270.86,15.23c-6.43,0-6.45,10,0,10s6.45-10,0-10Z"/>
  <path class="cls-4" d="m310.23,16.69c-6.43,0-6.45,10,0,10s6.45-10,0-10Z"/>
  <path class="cls-4" d="m302.94,40.75c-6.43,0-6.45,10,0,10s6.45-10,0-10Z"/>
  <path class="cls-4" d="m333.56,55.33c-6.43,0-6.45,10,0,10s6.45-10,0-10Z"/>
  <path class="cls-4" d="m345.95,28.35c-2.42,0-3.93,1.41-4.53,3.18-.74-1.41-2.14-2.45-4.22-2.45-6.43,0-6.45,10,0,10,2.42,0,3.93-1.41,4.53-3.18.74,1.41,2.14,2.45,4.22,2.45,6.43,0,6.45-10,0-10Z"/>
  <path class="cls-4" d="m367.1,17.42c-6.43,0-6.45,10,0,10s6.45-10,0-10Z"/>
  <path class="cls-4" d="m368.56,42.93c-6.43,0-6.45,10,0,10s6.45-10,0-10Z"/>
  <path class="cls-4" d="m376.58,28.35c-6.43,0-6.45,10,0,10s6.45-10,0-10Z"/>
  <path class="cls-4" d="m397.72,29.08c-6.43,0-6.45,10,0,10s6.45-10,0-10Z"/>
  <path class="cls-4" d="m487.4,26.89c-6.43,0-6.45,10,0,10s6.45-10,0-10Z"/>
  <path class="cls-4" d="m507.09,33.46c-2.57,0-4.11,1.59-4.63,3.51-.8-.8-1.93-1.32-3.39-1.32-6.43,0-6.45,10,0,10,2.57,0,4.11-1.59,4.63-3.51.8.8,1.93,1.32,3.39,1.32,6.43,0,6.45-10,0-10Z"/>
  <path class="cls-4" d="m518.02,27.62c-6.43,0-6.45,10,0,10s6.45-10,0-10Z"/>
  <path class="cls-4" d="m397.72,18.14c-6.43,0-6.45,10,0,10s6.45-10,0-10Z"/>
  <path class="cls-4" d="m297.1,23.98c-6.43,0-6.45,10,0,10s6.45-10,0-10Z"/>
  <path class="cls-4" d="m216.17,32c-6.43,0-6.45,10,0,10s6.45-10,0-10Z"/>
  <path class="cls-4" d="m165.87,10.12c-6.43,0-6.45,10,0,10s6.45-10,0-10Z"/>
  <path class="cls-4" d="m162.95,32c-6.43,0-6.45,10,0,10s6.45-10,0-10Z"/>
  <path class="cls-4" d="m126.49,31.27c-6.43,0-6.45,10,0,10s6.45-10,0-10Z"/>
  <path class="cls-4" d="m263.57,43.66c-6.43,0-6.45,10,0,10s6.45-10,0-10Z"/>
  <path class="cls-4" d="m258.46,34.19c-6.43,0-6.45,10,0,10s6.45-10,0-10Z"/>
  <path class="cls-4" d="m316.06,58.97c-6.43,0-6.45,10,0,10s6.45-10,0-10Z"/>
  <path class="cls-4" d="m370.02,68.45c-6.43,0-6.45,10,0,10s6.45-10,0-10Z"/>
  <path class="cls-4" d="m136.7,69.18c-6.43,0-6.45,10,0,10s6.45-10,0-10Z"/>
  <path class="cls-4" d="m197.95,70.64c-6.43,0-6.45,10,0,10s6.45-10,0-10Z"/>
</svg>