<?xml version="1.0" encoding="UTF-8"?>
<svg id="Layer_1" data-name="Layer 1" xmlns="http://www.w3.org/2000/svg" viewBox="0 0 220.5 448">
  <defs>
    <style>
      .cls-1 {
        fill: #006837;
      }

      .cls-1, .cls-2, .cls-3 {
        stroke: #fff;
        stroke-miterlimit: 10;
      }

      .cls-2 {
        fill: #fff;
      }

      .cls-3 {
        fill: #c1272d;
      }
    </style>
  </defs>
  <path class="cls-1" d="m131.09,443.05c-5.73-5.02-13.84-12.45-23-22-20.57-21.46-43.03-44.9-57-80-12.15-30.52-12.76-56.98-13-74-.45-32.05,5.81-57.17,10-74,8.89-35.7,14.24-32.13,18-58,1.12-7.68,2.62-21.55,12-35,6.1-8.75,12.01-12.26,16-14,2.4-1.05,13.63-5.93,22-1,4.28,2.52,5.95,6.52,7,6,1.38-.68-.59-8.03-3-14-4.91-12.15-12.37-20.32-16-24-6.54-6.63-33.58-34.06-61-30-4.49.66-12.22,2.65-15-1-1.96-2.57-1-7.33,1-10,7.71-10.29,38.16.63,42,2,23.32,8.35,60.38,30.54,65,56,1,5.53,1.64,17.62,10,23,3.37,2.17,7.67,3.05,9,7,1.44,4.27-1.77,8.69-2,9-.53.71-2.43,3.08-9,5-5.28,1.54-13.13,3.84-21,0-1.91-.93-5.56-2.77-8-7-2.71-4.69-2.24-9.38-2-11"/>
  <path class="cls-3" d="m131.09,443.05c1.96-.72,5.31-2.88,9-19,6.92-30.19,2.55-55.34-1-75-10.87-60.15-12.18-56.8-13.5-74.5-1.86-24.96-3.09-44.18,5-67,4.48-12.65,9.84-27.75,22.5-43.5,7.93-9.86,15.42-15.86,19-29,1.34-4.94,4.35-15.99-1-25-3.58-6.03-12-13-12-13,0,0-5.76-1.97-11.67-4.8-3.88-1.86-4.8-2.65-5.33-2.2,0,0-1,.85,5,13,.4-3.38.04,7.28-2,10-3.13,4.17-10.79,3.34-14,3-2.91-.31-7.35-.79-11-4-3.25-2.86-6-8-6-8,0,0-2.27-5.11-1-8,1.73-3.92,9.46-2.51,10-5,.44-2.03-4.27-4.77-7-6-6.19-2.8-12.04-2.25-14-2-9.36,1.21-15.62,6.81-18,9-11.67,10.73-14.67,26.64-17,39-.85,4.5-.83,5.96-2,11-2.78,11.94-6.74,20.24-8,23-8.48,18.5-12.59,42.77-15,57-3.69,21.76-3.96,38.54-4,42-.16,13.72-.27,33.39,6,57,5.6,21.1,13.65,35.4,22,50,3.6,6.29,45.73,79.12,65,72Z"/>
  <path class="cls-2" d="m87.81,118.76c-6.43,0-6.45,10,0,10s6.45-10,0-10Z"/>
  <path class="cls-2" d="m75.87,139.27c-19.62,47.12-38.15,97.59-27.23,149.29,1.33,6.29,10.97,3.63,9.64-2.66-10.5-49.68,8.42-98.78,27.23-143.97,2.47-5.93-7.2-8.52-9.64-2.66Z"/>
  <path class="cls-2" d="m129.37,398.02c-.72-22.3-4.04-44.49-9.7-66.06-1.63-6.22-11.28-3.58-9.64,2.66,3.81,14.5,6.59,29.24,8.08,44.16.7,7.04,1.14,14.1,1.32,21.17.04,1.67,1.15,9.67-.63,10.43-1.57.67-5.6-6.22-5.86-7.21-1.66-6.21-11.31-3.58-9.64,2.66,1.77,6.59,9.52,15.94,17.21,14.55,10.33-1.86,9.12-14.57,8.87-22.35Z"/>
</svg>