<?xml version="1.0" encoding="UTF-8"?>
<svg id="Layer_1" data-name="Layer 1" xmlns="http://www.w3.org/2000/svg" viewBox="0 0 177.5 475.5">
  <defs>
    <style>
      .cls-1, .cls-2 {
        fill: #f2f2f2;
      }

      .cls-3 {
        fill: #fff;
      }

      .cls-4 {
        fill: #ed1c24;
      }

      .cls-4, .cls-5, .cls-6, .cls-7, .cls-8, .cls-2 {
        stroke: #000;
        stroke-miterlimit: 10;
      }

      .cls-5 {
        fill: #c3eeff;
      }

      .cls-6 {
        fill: #87d6f5;
      }

      .cls-7 {
        fill: #42210b;
      }

      .cls-8 {
        fill: #2e3192;
      }
    </style>
  </defs>
  <path class="cls-7" d="m51.48,50.49c-.94-4.45-2.29-13.73,1.44-22.08,5.28-11.83,17.17-13.78,27.77-15.52,10.22-1.67,24.96-4.09,32.56,6.56,3.72,5.21,3.91,11.02,4.31,29.84.68,32.21-.46,37.87.96,48.94,2.77,21.67,12.72,35.31,17.72,43.57,16.99,28.1,15.52,58.28,24.42,192.17,6.29,94.69,9.44,115.76-3.83,129.51-4.69,4.86-9.26,6.55-67.99,6.56-53.94.01-63.51-1.41-69.9-11.34-6.31-9.8-3.34-18.3-1.44-65.65,1.15-28.65-.64-8.04.96-85.94.98-48,1.51-72.33,3.35-88.33,4.73-41.19,7.1-61.79,17.24-78.18,3.72-6.02,10.11-14.53,12.45-28.65,1.46-8.79.49-14.57,0-31.03-.14-4.54-.35-12.72-.15-24.03.05-2.7.11-4.93.15-6.41Z"/>
  <path class="cls-2" d="m51.48,50.49c3.31,3.04,8.1.19,13.41-1.79,26.34-9.81,50.55,7.47,55.06-2.98.59-1.37.83-3.17.96-4.18.96-7.35-1.91-13.46-2.87-15.52-4.5-9.59-13.09-13.05-17.72-14.92-2.19-.88-13.02-5.02-26.81-.6-7.12,2.28-18.41,5.9-22.98,17.9-2.84,7.46-3.14,18.32.96,22.08Z"/>
  <path class="cls-6" d="m50.05,62.43c2.97-5.54,10.38-1.11,28.25-1.19,11.33-.05,22.72,1.38,33.99,0,1.41-.17,6.06-.8,7.18,1.79.52,1.19.1,2.62,0,2.98-2.12,7.94,8.12,36.25,2.87,48.94-5.05,12.21-24.85,10.96-37.82,10.15-13.31-.84-28.17-1.78-33.04-13.13-3.7-8.63,2.07-14.64-.96-37-.95-7.03-1.97-9.75-.48-12.53Z"/>
  <path class="cls-5" d="m26.59,190.15c4.65-3.14,6.88,2.35,18.67.6,2.92-.43,11.42-1.8,19.63-8.95,4.76-4.14,3.56-5.15,7.66-8.36,7.35-5.73,18.04-7.84,25.85-2.98,2.22,1.38,4.87,3.74,6.7,5.37,3.83,3.41,5.69,5.69,7.18,7.16,6.25,6.17,14.47,6.45,17.72,6.56,11.64.4,18.5-6.82,22.02-2.39,1.09,1.37,1.28,3.14,1.44,4.77,1.91,19.91,2.87,29.87,3.35,43.57.17,4.69.15,1.09,1.44,20.29,1.28,19.21,1.55,26.64,2.39,40.58,2.14,35.34,2.92,28.69,3.35,45.36.59,22.45-.72,38.17,2.87,46.55.22.5.94,2.11.48,3.58-1.45,4.65-13.17,2.98-17.72,2.39-17.78-2.31-35.78-.43-53.62-1.79-23.41-1.79-35.13-2.19-40.22-1.79-7.49.58-15.01-.37-22.5,0-7.9.39-11.95,1.01-14.84-2.39-3.26-3.84-2.74-10.09-2.39-18.5.49-11.92-.69-23.9,0-35.81,0,0,1.65-28.66,2.39-58.49.31-12.56.31-21.28.96-42.37.9-29.16,1.74-39.29,7.18-42.97Z"/>
  <path class="cls-8" d="m28.02,226.55c-.85,2.09-.52,2.47-.48,15.52.09,26.84.14,40.26-.48,44.76-.15,1.11-.64,4.46,0,4.77.75.36,2.49-3.72,3.83-5.97,4.01-6.75,11.16-8.36,17.72-9.55,13.06-2.36,22.18-2.74,30.64-3.58,10.82-1.08,5.85-1.45,38.3-7.16,1.19-.21,7.02-1.93,18.67-5.37,7.28-2.15,12.51-3.79,14.36-8.95.84-2.34.65-4.46.48-6.56,0,0-.24-2.94-1.44-29.24-.68-14.87.93-21.56-1.92-23.28-1.66-1-3.66.41-5.75,1.79-6.44,4.26-13.71,6.38-20.11,10.74-19.49,13.28-47.66,10.11-52.67,9.55-5.84-.66-8.45-1.59-14.36-1.19-4.47.3-21.8,1.47-26.81,13.73Z"/>
  <path class="cls-4" d="m26.59,313.09c-.82-.95.24-2.52.48-7.76.24-5.39-.77-6.23,0-9.55.74-3.19,2.33-5.25,3.35-6.56,2.45-3.16,5.1-4.57,6.7-5.37,9.73-4.86,16.76-5.97,16.76-5.97,9.93-1.56,16.04-1.43,22.5-1.79,7.55-.42,17.17-2.47,36.39-6.56,13.56-2.89,20.35-4.33,23.46-5.97,5.9-3.09,12.36-7.93,14.36-5.37.23.29.4.68.48,5.37.1,6.1-.17,7.22,0,10.74.25,5.16.95,5.49.48,7.16-1.19,4.19-6.56,5.42-9.1,5.97-16.25,3.49-24.38,5.23-25.85,5.37-17.13,1.62-13.87,3.03-28.73,4.18-10.78.83-16.48.39-27.29,2.39-8.1,1.49-12.07,3.06-15.32,4.77-.94.49-4.3,2.31-8.62,4.77-6.55,3.74-9.02,5.38-10.05,4.18Z"/>
  <path class="cls-1" d="m54.4,225.88c.41.18.77.43,1.12.7l-.3-.23c.7.55,1.35,1.17,2.12,1.63.33.2.78.25,1.16.15.35-.1.73-.36.9-.69.18-.35.28-.77.15-1.16s-.35-.69-.69-.9c-.23-.14-.45-.29-.66-.45l.3.23c-.83-.65-1.61-1.44-2.58-1.87-.17-.11-.36-.17-.56-.18-.2-.04-.4-.04-.6.03-.35.1-.73.36-.9.69-.18.35-.28.77-.15,1.16.11.35.34.74.69.9h0Z"/>
  <path class="cls-1" d="m54.74,225.91h18.46c1.93,0,1.93-3,0-3h-18.46c-1.93,0-1.93,3,0,3h0Z"/>
  <path class="cls-1" d="m73.29,223.11c-.37.18-.69.43-1.01.68-.25.2-.47.42-.69.66-.5.56-.95,1.18-1.36,1.82-.21.32-.25.8-.15,1.16s.36.73.69.9c.35.18.77.28,1.16.15s.68-.35.9-.69.46-.7.72-1.03l-.23.3c.34-.44.71-.85,1.15-1.19l-.3.23c.2-.15.42-.29.65-.4.32-.15.6-.56.69-.9.1-.36.05-.84-.15-1.16s-.51-.6-.9-.69l-.4-.05c-.27,0-.52.07-.76.2h0Z"/>
  <path class="cls-1" d="m57.02,227.72c0,11.86-.41,23.71-.42,35.56,0,1.93,3,1.93,3,0,0-11.86.42-23.71.42-35.56,0-1.93-3-1.93-3,0h0Z"/>
  <path class="cls-1" d="m56.65,264.11c-.03.09-.07.18-.1.27l.15-.36c-.22.51-.5.99-.84,1.43l.23-.3c-.26.33-.55.65-.88.91l.3-.23c-.09.07-.18.13-.27.18-.33.19-.59.53-.69.9s-.05.84.15,1.16.51.6.9.69.8.06,1.16-.15c.72-.43,1.25-1.04,1.75-1.7.45-.6.79-1.28,1.04-1.98.12-.35.03-.84-.15-1.16s-.54-.61-.9-.69c-.38-.09-.81-.07-1.16.15s-.55.51-.69.9h0Z"/>
  <path class="cls-1" d="m59.26,265.25c.14-.77.28-1.54.33-2.32,0-.21-.04-.4-.13-.58-.06-.19-.16-.35-.31-.48-.14-.15-.3-.25-.48-.31-.18-.09-.37-.14-.58-.13-.39.02-.79.14-1.06.44l-.23.3c-.14.23-.2.49-.2.76-.02.21-.04.42-.06.62l.05-.4c-.06.43-.14.86-.22,1.29-.06.2-.07.4-.03.6,0,.2.07.39.18.56.09.17.22.32.39.42.14.13.31.22.51.27.38.09.81.07,1.16-.15.31-.2.62-.52.69-.9h0Z"/>
  <path class="cls-1" d="m56.14,269.32c6.25,0,12.49-.17,18.74-.17,1.93,0,1.93-3,0-3-6.25,0-12.49.17-18.74.17-1.93,0-1.93,3,0,3h0Z"/>
  <path class="cls-1" d="m70.88,265.04c.83.93,1.81,1.7,2.66,2.62.26.28.69.44,1.06.44s.81-.16,1.06-.44.46-.66.44-1.06-.16-.76-.44-1.06c-.85-.91-1.83-1.69-2.66-2.62-.25-.28-.7-.44-1.06-.44s-.81.16-1.06.44-.46.66-.44,1.06.16.75.44,1.06h0Z"/>
  <path class="cls-1" d="m69.88,228.24c-.03,6.62-.56,13.22-.77,19.84-.09,2.79-.1,5.59-.21,8.38-.1,2.57-.17,5.26.61,7.74.57,1.84,3.47,1.05,2.89-.8-.73-2.36-.58-4.9-.48-7.34.12-2.83.11-5.66.21-8.48.21-6.45.73-12.89.75-19.34,0-1.93-2.99-1.93-3,0h0Z"/>
  <path class="cls-1" d="m69.15,242.65c1.31,0,2.62-.1,3.93-.14.64-.02,1.27-.02,1.91.02.34.02.67.04,1.01.09-.31-.04.15.03.17.03.19.03.37.07.56.12.76.18,1.66-.23,1.85-1.05.17-.76-.23-1.66-1.05-1.85-2.77-.64-5.57-.24-8.37-.23-.78,0-1.54.69-1.5,1.5.04.81.66,1.5,1.5,1.5h0Z"/>
  <path class="cls-1" d="m68.73,251.71c2.85,0,5.68.25,8.51-.23.78-.13,1.28-1.13,1.05-1.85-.27-.84-1.01-1.19-1.85-1.05-.1.02-.2.03-.3.05-.17.02-.2.03-.1.02.1-.01.07,0-.1.01-.1.01-.2.02-.3.03-.3.03-.61.05-.91.07-.67.03-1.33.04-2,.03-1.33-.02-2.66-.08-3.99-.08-.78,0-1.54.69-1.5,1.5s.66,1.5,1.5,1.5h0Z"/>
  <path class="cls-1" d="m75.02,251.89c1.49,0,3.01.29,4.45-.23.37-.13.69-.34.9-.69.19-.32.27-.8.15-1.16-.24-.73-1.05-1.33-1.85-1.05-.28.1-.57.16-.86.21l.4-.05c-1.06.14-2.13-.03-3.2-.03-.78,0-1.54.69-1.5,1.5s.66,1.5,1.5,1.5h0Z"/>
  <path class="cls-1" d="m74.46,242.65h5.04c.78,0,1.54-.69,1.5-1.5s-.66-1.5-1.5-1.5h-5.04c-.78,0-1.54.69-1.5,1.5s.66,1.5,1.5,1.5h0Z"/>
  <path class="cls-1" d="m77.06,225.53c.51.31.98.52,1.24,1.08.32.67.41,1.53.53,2.25.28,1.66.44,3.33.5,5.02.15,3.74-.1,7.47-.24,11.21s-.14,7.83-.24,11.74c-.05,1.84.08,3.85-.37,5.65-.41,1.64-1.23,3.15-1.71,4.78-.54,1.86,2.35,2.65,2.89.8.51-1.75,1.43-3.37,1.8-5.17.4-1.96.33-4.06.38-6.06.11-4.36.11-8.72.29-13.07.17-4.11.41-8.25.02-12.36-.16-1.64-.35-3.35-.78-4.95-.46-1.68-1.37-2.61-2.82-3.5-1.65-1.01-3.16,1.58-1.51,2.59h0Z"/>
  <path class="cls-1" d="m78.1,269.14c4.8,0,9.6.34,14.41.35,1.93,0,1.93-3,0-3-4.8,0-9.6-.34-14.41-.35-1.93,0-1.93,3,0,3h0Z"/>
  <path class="cls-1" d="m89.1,263.69c.25.79.68,1.43,1.2,2.07.38.46.8.88,1.16,1.35l-.23-.3c.22.29.42.6.57.94l-.15-.36c.11.26.19.54.23.82l-.05-.4c0,.06.01.13.02.19.03.4.15.77.44,1.06.26.26.69.46,1.06.44.76-.03,1.57-.66,1.5-1.5-.08-.98-.4-1.88-.99-2.67-.5-.66-1.09-1.24-1.59-1.9l.23.3c-.22-.29-.41-.59-.56-.93l.15.36c-.04-.09-.07-.18-.1-.27-.24-.75-1.05-1.3-1.85-1.05-.75.24-1.3,1.04-1.05,1.85h0Z"/>
  <path class="cls-1" d="m78.52,225.21h13.43c1.93,0,1.93-3,0-3h-13.43c-1.93,0-1.93,3,0,3h0Z"/>
  <path class="cls-1" d="m92.05,222.95c-1.89,2.69-2.53,5.85-2.74,9.08-.24,3.75-.25,7.51-.52,11.26-.26,3.58-.5,7.15-.65,10.74-.13,2.95-.3,6.09.54,8.96.54,1.85,3.44,1.06,2.89-.8-.78-2.66-.54-5.6-.43-8.34.15-3.36.36-6.72.61-10.08.26-3.5.36-6.99.49-10.5.12-3.14.54-6.18,2.39-8.81,1.11-1.58-1.49-3.08-2.59-1.51h0Z"/>
  <path class="cls-1" d="m96.84,223.99c2.25,0,4.49-.09,6.74,0,1.95.09,4.16.23,5.98,1,2.69,1.14,3.53,4.72,3.77,7.34.26,2.85-.48,5.6-2.52,7.67-1.88,1.91-4.41,3.01-6.96,3.7-1.86.5-1.07,3.39.8,2.89,4.94-1.33,9.77-4.33,11.26-9.51.85-2.97.49-6.27-.47-9.17-.9-2.71-2.58-4.97-5.36-5.92-4.2-1.43-8.88-1.02-13.24-1.01-1.93,0-1.93,3,0,3h0Z"/>
  <path class="cls-1" d="m96.28,224.51c.56-.01.43-.08.56.46s.08,1.15.07,1.7c-.02,1.74.1,3.48.26,5.22.37,4.17.93,8.31.77,12.51s.03,8.61-.14,12.91c-.07,1.76-.26,3.52-.39,5.28-.04.59-.02,1.53-.34,2.06s-1.08.89-1.5,1.4c-.76.92-.35,2.64,1.06,2.56,3.2-.17,6.38-.65,9.59-.68,1.93-.02,1.93-3.02,0-3-3.21.03-6.39.51-9.59.68.35.85.71,1.71,1.06,2.56.55-.67,1.34-1.08,1.83-1.8s.64-1.56.76-2.4c.27-2.03.41-4.13.51-6.18.23-4.92.15-9.89.2-14.81.05-4.8-.82-9.54-1.03-14.33-.12-2.8.41-7.22-3.66-7.12-1.93.05-1.93,3.05,0,3h0Z"/>
  <path class="cls-1" d="m103.31,246.03c0,3.87,0,7.73.13,11.6.06,1.6.27,3.18.8,4.7.5,1.42,1.18,2.78,1.79,4.16.33.75,1.41.91,2.05.54.77-.44.86-1.32.54-2.05-.54-1.23-1.16-2.43-1.58-3.71-.48-1.45-.59-2.89-.63-4.41-.11-3.61-.11-7.22-.11-10.83,0-1.93-3-1.93-3,0h0Z"/>
  <path class="cls-1" d="m102.61,229.64v6.1c0,.78.69,1.54,1.5,1.5s1.5-.66,1.5-1.5v-6.1c0-.78-.69-1.54-1.5-1.5s-1.5.66-1.5,1.5h0Z"/>
  <path class="cls-1" d="m104.25,229.92c.14,0,1.19-.06,1.23.05,0,0-.36-.06-.13-.02.04,0,.09.02.13.02.1.02.21.04.31.06.21.05.41.1.61.17.05.02.39.16.16.05s.09.05.14.07c.2.1.37.23.56.34.13.08-.14-.09-.13-.1,0,0,.14.12.13.11.06.06.12.12.18.18.02.02.12.13.11.13-.01.01-.18-.27-.1-.13.05.1.13.19.19.3.02.04.04.08.06.12.13.22-.05-.08-.04-.11-.02.04.07.22.09.26.03.11.04.22.07.33.05.19,0-.3-.02-.1,0,.07,0,.14.01.21,0,.13,0,.26,0,.39,0,.06-.01.12-.01.17,0,.22.06-.26,0-.04-.07.3-.13.6-.22.9-.11.35.1-.13-.04.08-.06.1-.14.2-.19.31-.06.14.06-.08.08-.1-.05.05-.09.11-.14.16-.1.1-.2.2-.3.29-.12.1-.24.16-.03.03-.11.07-.21.15-.32.22-.23.15-.48.29-.72.42-.98.51-2.07.86-2.99,1.49-.65.44-1,1.34-.54,2.05.42.64,1.36,1.01,2.05.54.92-.63,2-.98,2.99-1.49,1.29-.67,2.43-1.61,2.96-3,.51-1.31.6-2.87.05-4.18-.46-1.1-1.35-1.96-2.43-2.46-1.18-.54-2.47-.77-3.77-.74-.78.02-1.54.67-1.5,1.5s.66,1.52,1.5,1.5h0Z"/>
  <path class="cls-1" d="m58.92,229.08c-.14,0-.69-.33-.42-.11.16.13.4.25.58.35.59.32,1.19.55,1.85.64,1.13.15,2.19.03,3.32-.03,1.22-.07,2.4-.16,3.6-.41.6-.13,1.19-.28,1.79-.39.17-.03.34-.05.51-.09.72-.14.4.11-.6-.1l-1.32-.77.1.09-.77-1.32c-.29-1.51.1-1.7-.13-.87-.06.2-.12.39-.18.58-.13.41-.29.82-.41,1.24-.42,1.45-.53,3.05-.52,4.56,0,1.52.08,3.05.16,4.57.09,1.6-.1,3.15.24,4.74.32,1.46,1.9,2.34,3.29,2.15s2.77-1.46,2.6-2.95c-.31-2.67-1.06-5.17-1.77-7.76-.31-1.14-.56-2.29-.76-3.45-.11-.62-.21-1.24-.31-1.86,0-.06-.1-.73-.06-.38-.04-.33-.08-.66-.11-.99-.13-1.28-.84-2.58-2.2-2.89-1.24-.28-2.79.16-3.39,1.38-1.45,2.94-1.11,6.23-1.22,9.4-.06,1.78-.24,3.57-.05,5.35.13,1.15.3,2.22.9,3.24.49.83,1.18,1.54,1.87,2.2.88.84,2.15,1.1,3.28.62s1.72-1.51,1.84-2.74c.08-.84-.05-1.66-.18-2.5-.02-.14-.15-.87-.12-.71.02.19,0,.11-.02-.24-.02-.21-.02-.42-.02-.63,0-1.57-1.39-3.07-3-3-1.74.08-2.86,1.32-3,3-.05.61-.06,1.22-.06,1.84,0,.28,0,.56-.02.85,0,.11-.11.99-.03.48l5.48-.72c-.08-.12-.14-.24-.2-.36.16.38.18.41.06.09-.05-.23-.13-.46-.18-.7-.12-.53-.21-1.07-.33-1.6-.3-1.31-.83-2.67-1.87-3.57-1.31-1.13-2.93-1.11-4.24,0-1.13.95-1.38,2.52-1.55,3.9-.06.52-.1,1.04-.13,1.57-.01.23-.03.46-.05.69-.07.89.07-.28,0,.14l5.48-.72c-.05-.08-.36-.77-.19-.31-.08-.23-.15-.47-.23-.71-.22-.65-.47-1.32-.84-1.89-1.33-2.04-3.81-1.8-5.18,0-.82,1.07-.86,2.66-.83,3.95.01.59.06,1.18.08,1.77,0,.27.02.55,0,.82,0,.14-.01.28-.02.43.07-.47.08-.55.01-.25l5.01-1.32c.51.58-.07-.36.18.27-.1-.25-.18-.51-.27-.76-.24-.64-.48-1.3-.88-1.86-1.59-2.17-4.51-1.78-5.48.72-.26.66-.28,1.4-.28,2.11l5.59-1.51c-.17-.31-.19-.31-.07-.02-.06-.18-.12-.35-.16-.54-.19-.74-.03.44-.03-.35,0-.69.02-1.37.06-2.06.08-1.62,0-3.22-.09-4.84-.08-1.32-.07-2.64-.13-3.97-.02-.41-.04-.83-.03-1.25,0-.04,0-.52.03-.54-.09.53-.1.65-.04.35-.12.37-.31.7-.58.99l-1.32.77-.65.09-1.51-.41c.46.22.19-.06-.79-.82-.2-.51-.26-.64-.18-.4.02.2.12.42.16.61.09.42.17.84.24,1.27.17,1.01.35,2.02.49,3.03.42,2.93.38,6.42,1.28,9.45.98,3.31,5.72,2.56,5.89-.8.13-2.5.07-5.01,0-7.52-.03-1.19-.06-2.38-.07-3.57,0-.59,0-1.18,0-1.76,0-.29.02-.58.04-.87.04-.55-.03.04.09-.52l-5.48.72c.16.33.2.38.1.15.07.2.14.4.19.6.01.04.2.94.12.45.13.8.11,1.63.13,2.43.02.91.1,1.79.23,2.7.02.16.04.32.07.47-.03-.26-.03-.2.01.17.02.21.03.42.03.63-.01.38-.02.41-.01.09-.36,1.52.48,3.32,2.1,3.69s3.3-.46,3.69-2.1c.27-1.15.23-2.2.07-3.36-.05-.34-.11-.69-.14-1.04.03.32.01.06,0-.11-.01-.49-.04-.98-.05-1.47-.06-2.22-.29-4.35-1.36-6.34-1.19-2.2-4.95-1.81-5.48.72-.55,2.59-.35,5.31-.28,7.95s.14,5.26,0,7.89l5.89-.8c-.46-1.54-.55-2.49-.67-4-.14-1.7-.31-3.39-.55-5.08-.25-1.76-.39-3.82-1.02-5.49s-2.2-2.92-4.14-2.46c-1.78.42-2.39,2.17-2.51,3.77-.16,2.17.08,4.43.19,6.6.09,1.6.06,3.18,0,4.78-.07,1.76.11,3.59,1.07,5.12,1.56,2.48,5.59,1.53,5.59-1.51,0-.71-.18.11.07-.51l-5.48.72c.1.13.2.27.27.41-.12-.32-.12-.32,0,.01.09.25.17.51.27.76.35.91.72,1.64,1.37,2.38,1.47,1.69,4.52.79,5.01-1.32.28-1.2.23-2.39.17-3.61-.02-.53-.05-1.07-.03-1.6.02-.45.08-.51-.02-.04.11-.52-.42.55.03-.04h-5.18c.43.66-.08-.46.19.32.08.23.15.47.23.71.22.65.47,1.31.84,1.88.67,1.02,1.75,1.6,2.99,1.43,1.08-.15,2.29-.99,2.49-2.15.18-1.01.23-2.01.3-3.03.02-.2.03-.41.05-.61.07-.77-.16.58.02-.12.03-.1.19-.53.16-.58.11.17-.72,1-.35.69h-4.24c.44.38-.19-.5.05,0,.28.57-.1-.5.05.1.13.52.27,1.03.37,1.56.23,1.13.5,2.27,1.11,3.27s1.79,1.59,2.99,1.43c1.08-.14,2.3-.99,2.49-2.15.27-1.59.18-3.16.32-4.76h-6c0,1.68.48,2.71.34,4.07,1.71-.71,3.41-1.41,5.12-2.12-.27-.26-.53-.52-.79-.79-.21-.24-.25-.29-.13-.15.12.15.09.09-.08-.17.05.71-.08-.68-.04-.32.03.19.02.1-.02-.25-.02-.22-.03-.44-.03-.67-.05-1.51.1-3.01.14-4.51.03-1.17,0-2.34.03-3.51.01-.28.02-.57.05-.85.01-.14.19-1.25.05-.57.05-.25.09-.51.16-.76.04-.16.09-.31.14-.46-.17.36-.18.39-.04.1l-5.59-1.51c.25,2.53.63,5.11,1.26,7.58.3,1.16.65,2.3.97,3.46.18.63.34,1.27.49,1.91.06.29.13.58.18.87.01.08.13.91.1.62l5.89-.8c-.13-.6-.07.25-.03-.36.03-.36,0-.73.02-1.09.02-.68,0-1.35-.04-2.03-.07-1.35-.13-2.71-.14-4.07s-.01-2.05.33-3.19c.22-.74.54-1.46.69-2.23.44-2.17-.85-4.05-3.14-4.17-.64-.03-1.33.18-1.96.3-.78.15-1.56.32-2.33.49-.48.11-.98.09-1.64.12s-1.31.13-1.97.14c-.21,0-.43,0-.64-.02h.24c.32.14.32.12,0-.05l-.23-.14c-.85-.49-1.73-.82-2.72-.78-1.57.07-3.07,1.33-3,3,.07,1.56,1.32,3.08,3,3h0Z"/>
  <path class="cls-1" d="m61.59,266.15c.13-1.17.83-2.29,1.05-3.45.32-1.68.13-3.36.11-5.05-.04-3.31.42-6.6.55-9.91.03-.8.03-1.58-.05-2.38-.04-.4.1-1.2-.26-.59.49-.84,1.51-1.5,2.09-2.32.51-.72.96-1.48,1.45-2.21.13-.19.27-.38.4-.58.32-.46-.12.11.09-.11.12-.13.27-.27.38-.41l.14-.13c-.4.4-.9.61-1.51.61l-2.12-.88c-.69-.72-.22-.25-.06.02.22.36.45.73.74,1.04.72.73,1.63,1.07,2.57,1.42,1.39.52,3.47-.59,3.69-2.1.12-.81.19-1.51.02-2.32-.06-.3-.33-.95-.33-1.05,0-.84.51-1.94.75-2.76.64-2.13,1.27-4.37.71-6.6-.64-2.55-4.18-2.88-5.48-.72-.81,1.35-1.05,3.08-1.28,4.61-.25,1.62-.43,3.26-.62,4.89-.41,3.4-.75,6.81-.49,10.23.12,1.62,1.29,3,3,3,1.58,0,3.06-1.37,3-3,0-.1.03-.77,0-.6-.03.14-.24.42.08-.07l-4.71.61c.23.25.22.24-.05-.04.9,1.98,4.27,1.95,5.18,0,.17-.34.19-.4.06-.16l-1.32.77.27-.1-3.8-2.89c.03,2.4.17,4.76.35,7.15.18,2.4.04,4.82.23,7.22.09,1.13.33,2.21.52,3.31s.09,2.17.26,3.25.51,1.98,1.21,2.8c.55.65,1.6,1.1,2.03,1.47.71-1.71,1.41-3.41,2.12-5.12-2.06.16-4.25-.25-6.32-.29-.99-.02-1.99-.09-2.98-.03-1.19.07-2.24.47-3.39.65-1.6.25-2.49,2.26-2.1,3.69.47,1.71,2.08,2.35,3.69,2.1.86-.13,1.55-.45,2.43-.45.93,0,1.86.03,2.79.06,1.93.05,3.95.42,5.87.28,1.2-.09,2.27-.68,2.74-1.84.42-1.05.3-2.49-.62-3.28-.47-.4-.94-.74-1.47-1.05-.22-.13-.4-.03-.4-.23.38.77.48.9.3.37l-.07-.33c-.05-.37-.01-.82-.03-1.21-.08-1.89-.61-3.69-.68-5.59-.14-4.31-.45-8.61-.5-12.93-.02-1.81-1.92-3.59-3.8-2.89-1.2.44-2.05,1.08-2.59,2.25h5.18c-.21-.46-.55-.8-.89-1.17-1.36-1.5-3.71-.94-4.71.61-.7,1.08-.94,2.43-.9,3.7h6c-.23-3.12.01-6.22.38-9.32.15-1.26.28-2.52.46-3.78.1-.72.22-1.43.37-2.14.06-.28.12-.55.19-.82.02-.06.32-.89.18-.65l-5.48-.72c.08.34.09.37.03.08,0,.22,0,.43-.02.65.02-.21-.17.78-.21.95-.2.79-.46,1.57-.68,2.35-.24.83-.49,1.67-.64,2.52s-.16,1.57.01,2.39c.08.37.21,1.71.37.58l3.69-2.1c-.35-.11-.42-.14-.22-.09.62.71.78.84.49.4-.08-.2-.23-.39-.35-.57-.74-1.08-1.82-1.67-3.15-1.5-1.65.21-2.68,1.48-3.61,2.74-.68.91-1.3,1.88-1.91,2.84-.28.44.06.32.1-.11-.02.19-.53.53-.68.68-.64.62-1.25,1.29-1.66,2.09-.98,1.94-.39,4.2-.49,6.29-.1,2.1-.31,4.19-.43,6.28s.05,4.07,0,6.11c-.02.86-.27,1.59-.56,2.41-.36,1.03-.57,2.03-.69,3.12-.18,1.61,1.5,3,3,3,1.77,0,2.82-1.38,3-3h0Z"/>
  <path class="cls-1" d="m68.37,260.36c-2.78,0-5.5-.08-8.25.41,1.27.96,2.53,1.93,3.8,2.89.02-.4-.05.4-.06.4.02,0,.08-.32.1-.36.21-.58-.3.5.05-.09.15-.26.29-.52.46-.77.08-.12.16-.23.24-.35.38-.57-.28.28,0,0,.45-.45.84-.94,1.32-1.37.11-.1.22-.18.33-.28-.53.47-.18.13-.02.04.09-.05.66-.48.75-.43-.03-.02-.65.27-.23.11.02,0,.31-.08.31-.08.01.1-.67.02-.61.03-.58-.08.15.15-.36-.1-.14-.07-.63-.42-.56-.35.16.16-.32-.65-.14-.15-.25-.69,0-1.45.5-2l.36-.28c-.21.11-.19.11.05,0,.15-.21.22-.06-.07-.01s-.55.11-.83.15c-.22.03-.45.06-.67.1-.16.03-.31.07-.46.11-.71.22.02-.25.87.07l1.32.77-.09-.1.77,1.32c-.11,1.03-.1,1.28.03.75-.14.33-.13.33.03,0,.2-.31.38-.64.58-.96.46-.73.47-.79,1.02-1.43,1.34-1.55,1.91-3.07,2.08-5.1.29-3.49-.49-7.18-1.85-10.37-.9-2.11-4.19-1.8-5.18,0-.76,1.38-.71,2.88-.87,4.39-.2,1.8-.49,3.59-.71,5.38-.21,1.73-.38,3.46-.54,5.2-.08.86-.16,1.72-.22,2.59-.03.4-.06.8-.08,1.2,0,.23-.01.45-.02.68,0,.4-.01.46-.02.17l5.01-1.32c.35.4.39.83.25.1.12.66.02-.18.01-.28-.01-.57.01-1.14.04-1.71.08-1.77.37-3.5.64-5.25.6-3.83,1.04-7.71,1.02-11.59,0-1.32-.93-2.54-2.2-2.89-1.21-.33-2.82.2-3.39,1.38-1.4,2.91-1.98,5.95-2.29,9.15-.14,1.45-.2,2.91-.28,4.37-.02.35-.05.7-.07,1.05l-.03.33c.03-.2.03-.19,0,.01-.11.67-.3,1.26-.48,1.62l4.1-1.08.8.77c.17.42.22.52.15.29-.1-.2,0-.64-.01.04,0-.35-.04-.71-.04-1.06,0-.81,0-1.61,0-2.42,0-2.59.33-5.16.34-7.74,0-1.62-1.38-3-3-3s-3,1.37-3,3c0,3.04-.33,6.07-.33,9.12,0,2.34-.04,4.69,2.07,6.19,1.26.9,3.42.28,4.1-1.08,1.42-2.83,1.35-5.86,1.56-8.95.17-2.54.53-5.38,1.59-7.58l-5.59-1.51c.02,4.04-.52,8.02-1.12,12.01-.51,3.34-1.55,8.17.92,10.98,1.5,1.71,4.47.76,5.01-1.32.43-1.66.31-3.53.46-5.24.15-1.67.3-3.34.49-5,.18-1.53.38-3.06.58-4.58.11-.83.25-1.65.31-2.49.02-.29.04-.58.06-.87.03-.37.04-.39,0-.06.1-.35.08-.34-.05.05h-5.18c-.16-.37.04.15.05.19.07.22.15.44.21.66.14.46.26.92.37,1.38.11.5.19,1.01.29,1.51.11.55-.04-.54,0-.07.02.21.05.43.07.64.07.77.11,1.54.09,2.31,0,.15-.13,1.24-.02.61-.03.17-.06.34-.11.51-.11.41-.3.5-.02.15-.28.35-.08.13-.02.07-.14.14-.27.3-.4.45-.37.42-.74.85-1.06,1.31-.46.65-.9,1.37-1.28,2.07-.49.91-.86,1.85-.82,2.9.07,1.78,1.43,3.29,3.25,3.33.71.01,1.34-.24,2.02-.36.54-.09,1.09-.14,1.62-.3,2.17-.68,3.62-2.72,3.04-5.02-.43-1.71-1.67-3.21-3.42-3.63-1.56-.37-3.21.15-4.51,1.02-2.56,1.71-5.26,4.73-5.39,7.96-.08,2.1,1.97,3.22,3.8,2.89,2.1-.38,4.46-.2,6.65-.2,1.62,0,3-1.38,3-3s-1.37-2.99-3-3h0Z"/>
  <path class="cls-1" d="m70.36,246.43h5.45c.84,0,1.68.04,2.51-.02.68-.04,1.36-.14,2.04-.07l-.8-.11c.28.04.86.28-.03-.11.76.34,1.47.53,2.31.3.7-.19,1.45-.73,1.79-1.38.69-1.3.46-3.43-1.08-4.1-1.13-.5-2.23-.68-3.46-.59-.86.06-1.7.08-2.56.08h-6.18c-1.57,0-3.07,1.38-3,3,.07,1.63,1.32,3,3,3h0Z"/>
  <path class="cls-1" d="m69.28,252.01c.94,0,1.88-.07,2.82-.11.47-.02.94-.03,1.41-.03.25,0,.51.01.76.03l.21.02c.34.04.28.03-.18-.03.35.16.86.17,1.23.25.48.11.96.21,1.44.29.58.1,1.16.16,1.75.21.12,0,.25.02.37.03l-.43-.06c.12.02.24.05.36.08.3.1.24.07-.19-.09,1.4.7,3.31.42,4.1-1.08s.3-3.14-1.08-4.1c-3.49-2.44-7.52-3.82-11.76-4.1-1.57-.1-3.07,1.45-3,3,.08,1.71,1.32,2.89,3,3,.44.03.87.08,1.31.12-.97-.09-.08,0,.13.03.18.03.37.07.55.11.85.18,1.69.42,2.51.71.18.06.35.13.53.2.12.05.23.09.35.14-.43-.18-.49-.21-.19-.08.41.19.81.38,1.2.59.81.43,1.59.92,2.35,1.45,1.01-1.73,2.02-3.45,3.03-5.18-.59-.29-1.15-.52-1.79-.62-.45-.07-.9-.12-1.36-.16-.14-.01-.44-.1-.56-.05.48.07.54.07.2.02-.14-.02-.28-.05-.41-.08-.21-.04-.41-.09-.62-.13-.48-.11-.96-.21-1.44-.29-2.22-.37-4.39-.11-6.62-.1-1.57,0-3.07,1.37-3,3s1.32,3.01,3,3h0Z"/>
  <path class="cls-1" d="m69.2,249.32h11.19c1.57,0,3.07-1.38,3-3s-1.32-3-3-3h-11.19c-1.57,0-3.07,1.38-3,3,.07,1.63,1.32,3,3,3h0Z"/>
  <path class="cls-1" d="m81.05,228.46c.11,0,.22,0,.33,0l-.8-.11c.16.02.32.07.48.14l-.72-.3c.32.14.61.35.89.56l-.61-.47c.52.4,1.01.84,1.57,1.18.37.23.79.39,1.19.54s.88.19,1.31.21c.41.02.8-.07,1.16-.26.37-.12.69-.33.97-.62.29-.27.5-.59.62-.97.19-.36.27-.74.26-1.16-.03-.78-.29-1.58-.88-2.12l-.61-.47c-.47-.27-.97-.41-1.51-.41-.05,0-.11,0-.16-.01l.8.11c-.15-.02-.29-.06-.43-.12l.72.3c-.34-.14-.63-.36-.92-.58l.61.47c-.54-.42-1.05-.88-1.64-1.22-.75-.43-1.73-.77-2.61-.69-.41-.02-.8.07-1.16.26-.37.12-.69.33-.97.62-.29.27-.5.59-.62.97-.19.36-.27.74-.26,1.16.03.78.29,1.58.88,2.12.56.51,1.34.94,2.12.88h0Z"/>
  <path class="cls-1" d="m90.49,222.15c-2.21,0-4.41.3-6.63.31-.77,0-1.58.33-2.12.88s-.91,1.37-.88,2.12.29,1.58.88,2.12,1.31.88,2.12.88c2.21,0,4.41-.3,6.63-.31.77,0,1.58-.33,2.12-.88s.91-1.37.88-2.12-.29-1.58-.88-2.12-1.31-.88-2.12-.88h0Z"/>
  <path class="cls-1" d="m79.21,226.39c0,4.91.14,9.84-.26,14.74-.2,2.36-.4,4.6-.33,6.98.07,2.63.01,5.26.02,7.89h6c-.04-2.49.5-4.93.81-7.39.31-2.48.62-4.96.94-7.44s.64-4.99.93-7.49c.26-2.3.79-4.64.71-6.96l-5.89.8c-.08-.37.02.36.02.45,0,.25,0,.5-.02.76-.02.63-.03,1.25-.02,1.88,0,1.49.03,2.98.02,4.47-.01,2.83-.15,5.67-.26,8.49-.05,1.37-.13,2.74-.26,4.11-.03.3-.06.6-.09.89.07-.53.05-.33.03-.21-.04.21-.09.43-.13.64-.28,1.34-.57,2.67-.78,4.02-.24,1.61-.62,3.58.24,5.08,1.29,2.25,4.56,2.34,5.83,0,.83-1.53.67-3.52.71-5.2.07-2.46.18-4.95.35-7.4.21-2.93,1.01-5.78,1.43-8.68.26-1.74.46-3.48.63-5.23.13-1.35.05-2.78.47-4.07h-5.79c-.09-.31.02-.16,0,.11-.01.23-.03.46-.06.68-.05.52-.1,1.03-.14,1.55-.1,1.29-.18,2.58-.24,3.87-.13,2.65-.19,5.29-.16,7.94s.1,5.12,0,7.68-.65,5.2-.67,7.82c-.01,1.56,1.38,3.09,3,3,3.31-.18,4.37-3.13,4.64-5.97.28-2.84.15-5.74.31-8.59.1-1.81.29-3.63.36-5.44s-.02-3.45.17-5.19c.13-1.17.15-2.32.12-3.5-.02-.51-.02-1.02.02-1.53-.05.7-.03-.14.07-.13l-.14.35c-2.02.67-2.58,1.03-1.67,1.09,1.61.18,3-1.51,3-3,0-1.77-1.38-2.82-3-3-3.33-.37-4.33,3.28-4.29,5.84.05,2.86-.23,5.71-.27,8.57-.05,3.63-.49,7.25-.57,10.88-.02,1.08,0,2.16-.08,3.24-.02.21-.1.8-.01.27-.04.25-.13.51-.16.76-.07.53.28-.24-.04.15.41-.49.8-.77,1.53-.81l3,3c.02-2.62.56-5.2.67-7.82s.02-5.44,0-8.16.05-5.3.19-7.95c.07-1.29.15-2.58.25-3.87.1-1.17.28-2.29-.06-3.45-.85-2.91-4.88-2.79-5.79,0-.45,1.38-.47,2.84-.57,4.28s-.26,2.96-.45,4.43c-.39,2.98-1.15,5.89-1.53,8.86s-.38,5.88-.53,8.81c-.03.66-.03,1.32-.05,1.97-.02.44-.04.88-.08,1.32.02-.21.12-.46,0-.13-.21.61.34-.52.09-.18l1.08-1.08c2.01-.48,3.25-.07,3.72,1.23.11.3.14.35.08.14.22.89.03.49.06.18.03-.37.03-.74.07-1.12s.06-.4,0-.02c.04-.24.08-.49.12-.73.08-.45.16-.89.25-1.34.38-1.93.74-3.79.9-5.77.27-3.39.36-6.81.42-10.21.03-1.82,0-3.65,0-5.47-.01-1.73.16-3.48-.2-5.18-.7-3.31-6-2.57-5.89.8.08,2.31-.45,4.67-.71,6.96-.29,2.5-.6,4.99-.93,7.49s-.62,4.96-.94,7.44c-.32,2.46-.84,4.9-.81,7.39.06,3.86,6,3.87,6,0,0-2.63.05-5.26-.02-7.89-.06-2.37.14-4.62.33-6.98.41-4.9.27-9.83.26-14.74,0-3.86-6-3.87-6,0h0Z"/>
  <path class="cls-1" d="m82.67,268.27c.18-.23.32-.15-.42.3.32-.19-.79.26-.47.19.17-.04.33-.08.5-.11l-.8.11c.94-.11,1.91,0,2.84.09,1.23.13,2.47.12,3.7.27l-.8-.11c.99.14,1.96.35,2.94.54,1.48.29,2.93-.3,3.54-1.74.25-.6.36-1.32.15-1.95-.25-.79-.72-1.3-1.38-1.79-.09-.07-.19-.14-.28-.21-.29-.21.54.43.27.21-.17-.14-.34-.27-.5-.42-.36-.31-.67-.65-.99-1-.24-.26.38.54.19.25-.07-.11-.15-.21-.21-.31-.12-.2-.22-.4-.34-.61-.17-.3.22.62.12.28-.04-.13-.09-.26-.13-.39-.08-.27-.13-.53-.17-.81l.11.8c-.17-1.31-.09-2.63-.01-3.95l-5.89.8c.43,2.33.52,4.77,1.75,6.87,1.57-1.21,3.14-2.42,4.71-3.64-.39-.37-.81-.71-1.22-1.05-.19-.16-.39-.33-.57-.5s-.38-.48-.6-.62c.09.06.37.52.14.18-.08-.12-.16-.24-.24-.37-.14-.23-.27-.46-.39-.7-.28-.52-.54-1.05-.86-1.54-.67-1.02-1.76-1.6-2.99-1.43s-2.16.99-2.49,2.15c-.37,1.29-.4,2.71-.31,4.04s.28,2.73.63,4.05c.38,1.45,1.84,2.34,3.29,2.15,1.53-.21,2.5-1.44,2.6-2.95.11-1.71-.34-3.42-.58-5.1l.11.8c-.03-.22-.05-.43-.07-.65l-5.59,1.51c.88,1.67,1.63,3.33,2.85,4.8,1.41-1.41,2.83-2.83,4.24-4.24-.37-.44.41.61.08.11-.09-.14-.18-.28-.27-.42-.16-.27-.31-.55-.46-.84s-.28-.58-.41-.87c-.07-.16-.14-.31-.21-.47-.11-.26-.17-.7.06.15-.38-1.4-.79-2.84-1.77-3.95-1.25-1.42-3.84-1.03-4.71.61-1.01,1.91-1.06,4.03-1.34,6.13l.11-.8c-.06.44-.14.88-.25,1.31h5.79l-.02-.18.11.8c-.25-2.32.54-4.6-.3-6.88-.33-.91-.83-1.56-1.74-1.94-.83-.35-1.89-.38-2.67.15-2.42,1.63-2.37,4.57-2.7,7.17l.11-.8c-.06.45-.13.9-.28,1.34-.52,1.48.59,3.35,2.1,3.69,1.67.38,3.14-.51,3.69-2.1.46-1.32.45-2.79.62-4.17l-.11.8c.07-.48.14-.95.28-1.41.02-.07.12-.25.1-.3.03.08-.4.8-.14.37.07-.12.27-.37-.09.09-.21.25-.25.31-.13.18.21-.19.07-.08-.42.32-1.47-.6-2.94-1.2-4.41-1.79.12.34.21.67.27,1.03l-.11-.8c.11.9.03,1.8-.04,2.7-.1,1.14-.06,2.19.1,3.33.08.61.62,1.2,1.08,1.56.51.39,1.16.67,1.82.64,1.31-.06,2.55-.89,2.89-2.2s.42-2.78.6-4.17l-.11.8c.06-.44.13-.87.23-1.3.05-.19.1-.38.16-.56.04-.11.18-.45-.03.03-.22.51-.03.09.02,0l-4.71.61c-.56-.63-.38-.5-.22-.24.25.4-.24-.73-.1-.23.07.26.16.51.23.77.21.74.48,1.42.79,2.13.61,1.4,1.27,2.69,2.27,3.87,1.02,1.2,3.21,1.13,4.24,0,.52-.57.91-1.32.88-2.12s-.35-1.48-.88-2.12c-.19-.23-.13-.15.19.25-.06-.09-.12-.17-.18-.26-.09-.14-.18-.28-.26-.42-.21-.34-.4-.69-.58-1.05-.36-.7-.7-1.41-1.07-2.11-.59-1.12-2.17-1.77-3.39-1.38s-2.33,1.56-2.2,2.89.39,2.6.57,3.91l-.11-.8c.08.61.13,1.23.09,1.85l5.89-.8c-.18-.66-.3-1.34-.39-2.01l.11.8c-.16-1.2-.25-2.42-.11-3.63l-.11.8c.04-.29.09-.57.17-.85l-5.48.72c.76,1.17,1.28,2.41,2.17,3.5.73.89,1.68,1.53,2.51,2.32,1.09,1.03,2.75,1.16,3.94.23s1.54-2.57.77-3.87c-.07-.11-.12-.23-.19-.34-.19-.34.13.29.14.34-.04-.25-.19-.51-.26-.76-.15-.52-.26-1.06-.36-1.59-.18-1.03-.29-2.06-.48-3.09-.12-.67-.78-1.48-1.38-1.79s-1.23-.45-1.91-.36c-1.52.2-2.51,1.44-2.6,2.95-.13,2.19-.22,4.45.65,6.52s2.49,3.5,4.27,4.82l2.31-5.48c-1.51-.29-3.01-.62-4.55-.72-.96-.06-1.93-.09-2.89-.19-.78-.08-1.57-.16-2.36-.13-1.19.05-2.74.29-3.53,1.3-.51.65-.88,1.25-.88,2.12,0,.74.33,1.61.88,2.12s1.32.91,2.12.88c.74-.03,1.64-.27,2.12-.88h0Z"/>
  <path class="cls-1" d="m96.63,224.91c1,3.2,1.09,6.49,1.13,9.82.05,3.6.6,7.14.53,10.76-.06,3.44.23,6.85.29,10.29.03,1.6-.01,3.2-.15,4.8-.04.44-.13.97-.31,1.62-.02.08-.23.9-.17.58l-.15.28c.2-.2.18-.19-.05.04,1.57,1.21,3.14,2.42,4.71,3.64,1.43-3.22,1.96-6.43,1.29-9.92-.28-1.45-1.93-2.35-3.29-2.15-1.52.23-2.52,1.42-2.6,2.95-.13,2.4.29,5.15,1.08,7.43.49,1.43,1.54,2.48,3.04,2.84.59.14,1.18.13,1.78.07.44-.05.87-.12,1.31-.2.11-.02.84-.11.26-.06,2.17-.2,3.86-2.42,2.59-4.51-.68-1.13-1.14-1.94-1.37-3.25-.27-1.56-.46-3.13-.74-4.69-.53-2.92-.39-5.75-.38-8.7.01-3.87-5.86-3.85-6,0-.04,1.04.11,2.14.71,3.02,1.75,2.6,5.26,1.42,5.59-1.51.28-2.49-1.45-5.09-3.89-5.69-3.77-.94-5.24,4.57-1.6,5.79.26.09.52.14.79.21.11.02.23.05.34.08.24.05.22.06-.06.02l-1.08-1.08c-.12-.16-.06-.94-.13-.25-.02.22-.01.45,0,.67.01.86.07,1.72.11,2.57.07,1.64.13,3.28.13,4.92.01,3.86,6.01,3.87,6,0,0-2.62-.25-5.23-.24-7.85,0-1.13-.06-2.13-.68-3.11-.86-1.36-2.2-1.53-3.58-1.99-.53,1.93-1.06,3.86-1.6,5.79-.42-.11-.45-.69-.51-.09l5.59-1.51c.1.15.09.7.11,0h-6c0,1.64-.13,3.28-.08,4.92.06,1.8.35,3.6.68,5.37.3,1.63.48,3.28.78,4.91.3,1.65,1.07,3.05,1.93,4.46.86-1.5,1.73-3.01,2.59-4.51-.46.04-.91.1-1.36.18-.08.01-.78.24-.54.12l-.33.02c1.27,1.56,1.79,1.94,1.55,1.14.02-.28-.14-.69-.2-.97-.34-1.56-.66-2.95-.58-4.57l-5.89.8c.34,1.77.04,3.65-.69,5.3-.61,1.37-.51,2.91.77,3.87,1.21.9,2.83.81,3.94-.23,2.48-2.34,2.55-6.63,2.59-9.79.05-3.71-.38-7.39-.32-11.1.03-2.01.09-4.02-.07-6.02-.15-1.91-.42-3.79-.45-5.71-.05-3.83-.2-7.73-1.35-11.41-1.14-3.68-6.94-2.11-5.79,1.6h0Z"/>
  <path class="cls-1" d="m98.68,249.32c0,1.73.26,3.45.04,5.17l.11-.8c-.07.49-.17.96-.36,1.42l.3-.72c-.09.21-.2.41-.34.59l.47-.61s-.06.08-.09.11c1.71.71,3.41,1.41,5.12,2.12.02-1.02,0-2.04,0-3.05,0-.77-.33-1.58-.88-2.12s-1.37-.91-2.12-.88c-1.62.07-3,1.32-3,3,0,1.02.01,2.04,0,3.05-.02,1.19.77,2.29,1.84,2.74.51.22,1.01.28,1.55.2.62-.08,1.3-.34,1.72-.83,2.31-2.67,1.64-6.18,1.63-9.41,0-.77-.33-1.58-.88-2.12s-1.37-.91-2.12-.88c-1.62.07-3.01,1.32-3,3h0Z"/>
  <path class="cls-1" d="m103.5,246.22c1.55-.02,2.94-.54,4.34-1.16.27-.12.53-.25.8-.37.07-.03.72-.32.31-.15s.64-.26.67-.27c.27-.11.54-.22.81-.35,2.69-1.32,4.44-5.14,2.43-7.74-1.03-1.33-2.82-1.86-4.41-1.32-1.21.41-2.17,1.2-3.13,2-.34.29-.19.17.07-.04-.3.24-.62.46-.92.71-.37.3-.72.63-1.07.94-.19.17-.39.34-.59.5.39-.32-.03.01-.21.12-.12.07-.66.24-.25.16.22-.09.21-.09-.04-.02.69-.19,1.33,0,1.94.54l.77,1.32c.1.26.04.67,0,.94-.06.3-.23.45,0,.05.08-.15.34-.35.05-.11-.09.07-.36.24-.43.32-.17.05-.17.05,0,0,.12-.04.25-.07.37-.1.17-.04.34-.07.51-.1.34-.07.66-.14.99-.26,2.05-.72,3.63-1.97,4.79-3.82.91-1.44,1.78-3.14,2.14-4.81.16-.76.18-1.53.2-2.3,0-.14-.06-.82.04-.9-.07.42-.08.52-.04.3.01-.06.02-.12.04-.18.21-.4-.9,1.15-.44.77l-4.71-.61c.14.3.14.28,0-.07.06.15.12.31.17.47.08.25.15.5.21.75.04.17.07.35.11.53-.03-.3-.04-.34-.01-.12.03.32.06.64.06.97,0,.28,0,.56-.01.83,0,.18-.02.37-.04.55.05-.35.05-.35-.01,0-.06.25-.11.51-.18.76-.05.16-.1.32-.16.48.15-.34.15-.36,0-.06-.72,1.44-.4,3.26,1.08,4.1,1.94,1.11,4.35.59,5.41-1.45.61-1.18.65-2.47,1.06-3.71l-5.89-.8c0,.29,0,.57-.02.85,0,.07-.1.82-.04.45s-.09.37-.1.44c-.07.27-.15.54-.23.81-.16.52.08-.12-.06.16-.1.2-.21.39-.32.58-.35.61.34-.26-.17.21-.19.17-.37.34-.57.5l5.01,2.92c.07-.44.2-.85.35-1.26-.11.3-.05.1.04-.08.1-.22.2-.43.31-.65.25-.52.47-1.05.7-1.57-.16.37-.12.27.03-.03.08-.15.16-.31.24-.46,1.12-2.09,2.09-4.13,1.1-6.48-.19-.45-.38-.91-.62-1.33.15.27.12.32,0,0-.09-.23-.18-.47-.28-.7-.42-1.03-.84-2.04-1.51-2.93-.85-1.13-1.83-1.89-3.14-2.43-.88-.36-1.81-.52-2.71-.81-2.81-.91-5.13,3.02-2.92,5.01.44.4.91.77,1.36,1.16.21.19.41.38.6.59.14.16.13.14-.03-.05.11.16.21.33.29.5.86-1.5,1.73-3.01,2.59-4.51-.38.02-.77.04-1.14-.01.69.1-.84-.36-.23-.07-1.42-.67-3.3-.44-4.1,1.08s-.35,3.22,1.08,4.1c.86.54,1.11.69,1.85,1.44,1.05,1.07,2.77,1.13,3.94.23,1.09-.84,1.65-2.66.77-3.87-2.02-2.79-5.83-5.33-9.42-4.03.97,1.67,1.95,3.34,2.92,5.01-.54.46.52-.22-.16.11.35-.17.73-.29,1.09-.45.59-.27,1.12-.65,1.58-1.12,1.66-1.69.78-4.28-1.32-5.01-.98-.34-2.02-.34-3.05-.31-.2,0-.4.01-.6,0-.49-.01.38.05-.14-.01-.85-.11-1.49-.13-2.35,0s-1.62.96-1.94,1.74c-.4.94-.26,1.77.15,2.67-.22-.48.1.35.11.39,0,.02.19.94.11.39.08.51.08,1.04.07,1.55-.01.63-.07,1.25-.13,1.87-.05.54.01-.06-.03.25-.06.48-.14.95-.19,1.43-.12,1.25-.05,2.52-.03,3.77.02,1.26-.13,2.51.22,3.75.67,2.38,4.27,3.06,5.48.72.25-.48.46-.97.61-1.49.04-.13.4-1.17.11-.55.67-1.42.44-3.3-1.08-4.1-1.33-.7-3.39-.44-4.1,1.08-.22.47-.43.95-.57,1.45-.04.14-.42,1.1-.15.58l5.48.72c-.17-.59-.07.37-.04-.26.01-.28.01-.57.02-.86.02-.63,0-1.27,0-1.9s-.03-1.27-.01-1.9c0-.34.03-.67.06-1.01.02-.23.02-.22,0,.01.03-.23.06-.46.09-.69.38-2.85.37-5.58-.85-8.24-.6,1.47-1.2,2.94-1.79,4.41-.79-.02-.91,0-.37.08l.8.11c.36.04.7.04,1.06.03.31,0,.62-.03.92-.02.15,0,.3,0,.46.02-.3-.02-.28,0,.07.1-.44-1.67-.88-3.34-1.32-5.01.34-.34-.04.02-.25.13.53-.28-.28.11-.38.15-.73.31-1.27.66-1.88,1.18-2.26,1.9.15,6.02,2.92,5.01.3-.11.69-.07.13-.1.09,0,.76.04.34-.01s.27.09.35.11c.71.18-.38-.26.28.11.2.11.4.22.6.34.17.11.5.37.17.1.21.17.41.36.59.55.11.11.57.71.18.18,1.57-1.21,3.14-2.42,4.71-3.64-.91-.92-1.97-1.69-3.06-2.37-1.01,1.73-2.02,3.45-3.03,5.18,1.39.65,2.86,1,4.4.9,2.3-.14,3.7-2.43,2.59-4.51-.77-1.44-1.97-2.35-3.15-3.42-.97,1.67-1.95,3.34-2.92,5.01.72.23,1.46.37,2.18.6.33.12.36.13.07.03.29.18.33.2.11.05.23.25.25.26.07.03.11.16.22.32.32.49.52.88.47.93.8,1.76.19.47.39.94.62,1.39.08.16.16.33.24.49-.1-.26-.13-.29-.06-.1.06.23.06.16-.02-.2.06-.42.05-.45-.03-.1-.12.32-.12.33,0,.04-.08.17-.17.34-.25.51-.32.62-.67,1.22-.96,1.86-.34.8-.4.96-.2.46-.08.16-.15.33-.23.49-.16.35-.33.69-.49,1.04-.36.81-.74,1.63-.88,2.51-.2,1.28.12,2.72,1.38,3.39s2.53.39,3.64-.47c2.43-1.89,3.28-5.31,3.28-8.25,0-1.5-1.14-2.75-2.6-2.95s-2.82.71-3.29,2.15c-.21.64-.3,1.3-.44,1.95-.03.16-.07.31-.11.47-.04.15-.27.56-.02.13.11-.25.12-.28.02-.08l.3-.4,1.69-.7c1.11.4,1.41.46.92.2.36,1.37.72,2.74,1.08,4.1,1.73-3.43,1.61-7.75-.12-11.16-.95-1.87-3.32-1.75-4.71-.61-1.22,1-1.33,2.81-1.37,4.25,0,.26-.02.52-.02.77,0,.73.15-.36.02,0-.12.34-.21.69-.33,1.02,0,.01-.18.45-.07.18.12-.29-.19.4-.22.46-.29.6-.62,1.19-.98,1.76-.09.14-.18.29-.28.42.08-.11.39-.41-.03,0-.01.01-.36.31-.13.13.25-.2-.34.21-.41.24-.16.09-.33.18-.5.25.05-.02.41-.15.09-.05-.29.09-.57.16-.87.22-.85.17-1.69.41-2.41.92-1.37.98-2.54,2.77-2.43,4.52.17,2.62,2.66,3.85,5.02,3.21,1.53-.42,2.77-1.57,3.92-2.6.2-.18.43-.34.61-.53.28-.3-.44.33-.14.11.23-.17.45-.35.68-.52s.44-.36.66-.54c.04-.04.36-.28.07-.06-.33.25.21-.14.28-.18.06-.04.38-.19.39-.22-.06.16-.63.22-.76.22l-2.02-1.47-.07-.35.03-.31c-.09.28-.1.32-.02.12.16-.37-.07.11-.08.11.19-.23.21-.28.06-.13-.13.11-.12.11.01,0,.4-.23-1.11.46-.28.13-.8.32-1.58.67-2.36,1.03-.54.25-.25.11-.13.06-.24.09-.48.18-.72.26-.14.04-.29.08-.43.12-.79.22.45.02-.3.03-1.57.02-3.07,1.37-3,3,.07,1.61,1.32,3.02,3,3h0Z"/>
  <path class="cls-1" d="m104.01,226.48c.57,0,1.14.04,1.71.08.13.01.27.03.4.04-.3-.04-.35-.05-.13-.01.31.06.63.11.94.19.54.13,1.06.29,1.58.48.77.27-.41-.27.3.14.24.14.49.26.73.4s.48.3.7.47c-.44-.34.18.18.26.26.21.2.41.41.6.63-.31-.36.26.38.32.48.67,1.09.97,2.22,1.36,3.67s.43,2.21.02,3.62-.91,2.37-1.91,3.25c-2.11,1.84-4.78,2.66-7.44,3.5-1.55.49-2.54,2.09-2.1,3.69.42,1.52,2.14,2.58,3.69,2.1,3.8-1.19,7.81-2.63,10.65-5.56,2.94-3.05,4-7.77,2.99-11.81-.92-3.68-2.43-6.96-5.63-9.17-2.6-1.8-5.93-2.42-9.04-2.44-3.86-.03-3.87,5.97,0,6h0Z"/>
  <path class="cls-1" d="m109.74,227.36s.47.04.48.03c-.05.06-.84-.15-.27-.02.12.03.24.07.35.1.51.13-.63-.34-.18-.08.2.12.42.29.63.38-.38-.3-.49-.38-.31-.24.06.05.12.1.18.15.1.09.2.18.29.27.43.41.81.87,1.2,1.33s-.4-.59-.08-.09c.07.11.15.22.22.34s.14.23.2.35c.04.07.08.15.11.22.1.21.05.1-.14-.33-.02.2.18.58.22.79s.08.43.12.65c.02.11.03.22.05.34-.17-1.01-.06-.45-.03-.22.03.25.05.51.07.76.04.56.07,1.11.05,1.67,0,.23-.04.45-.05.68.05-1.06.05-.35-.05-.02-.48,1.5.56,3.34,2.1,3.69,1.64.37,3.18-.49,3.69-2.1.41-1.28.37-2.76.26-4.08-.14-1.66-.36-3.26-1.06-4.78-.36-.78-.9-1.45-1.43-2.11-.46-.57-.94-1.12-1.49-1.6-1.48-1.29-3.14-2.04-5.12-2.08-1.57-.03-3.07,1.4-3,3s1.32,2.97,3,3h0Z"/>
  <path class="cls-1" d="m106.48,268.39c3.86,0,3.87-6,0-6s-3.87,6,0,6h0Z"/>
  <path class="cls-1" d="m92.29,227.44c3.86,0,3.87-6,0-6s-3.87,6,0,6h0Z"/>
  <path class="cls-1" d="m64.77,279.94c-1.52-.96-3.67-.93-4.73.69-1.14,1.74-.5,4.13.82,5.56.56.6,1.24,1.08,1.86,1.62.14.12.28.25.41.38.05.05.37.42.27.29.23.31.41.73.5.95.31.78.58,1.69.61,2.35,0,.18,0,.37,0,.55-.02.32-.02.11,0,.05-.02.09-.04.19-.07.28,0,.02-.09.23-.02.08.07-.16-.05.09-.08.12-.16.17.15-.16-.02.01-.15.16.27-.14-.08.07-.14.08-.2.11-.43.18-.1.03-.21.07-.31.09-.04.01-.42.08-.22.05.19-.02-.07,0-.12,0-.21-.05.34.13.01,0-.22-.08.06.05.06.04,0-.01-.18-.08-.18-.11,0-.03.18.23.05.03-.02-.03-.24-.28-.12-.12s-.05-.07-.07-.11c-.06-.1-.13-.2-.18-.3-.26-.45-.48-.92-.7-1.39-.35-.73-1.39-.92-2.05-.54-.75.44-.89,1.32-.54,2.05.76,1.59,1.65,3.37,3.66,3.44s3.93-1.2,4.31-3.16c.37-1.9-.27-4.07-1.17-5.75-.44-.81-1.12-1.46-1.83-2.04-.33-.27-.67-.53-.98-.82-.14-.12-.27-.25-.39-.38-.07-.07-.14-.15-.21-.23-.09-.11.04.08-.08-.12-.18-.3-.27-.51-.27-.99,0-.11,0-.24.01-.35-.02.16.02.02.03-.06.04-.41.04.01,0-.02.08-.13.08-.14.01-.05-.07.08-.06.07.03-.03.06.02.11-.21.02-.03-.08.16.08-.14-.12.06.02-.02.18-.06.21-.06-.38,0-.08.03,0,.02.21-.01-.26-.07-.04-.01.1.02.2.05.3.08.26.07.06.02,0,0,.12.06.23.13.35.2,1.64,1.03,3.14-1.56,1.51-2.59h0Z"/>
  <path class="cls-1" d="m71.5,294.2c0-2.94.03-5.83.45-8.75.15-1.08.32-2.17.57-3.23.12-.49.25-1,.44-1.47,0-.01.17-.34.24-.47.01-.02.17-.26.09-.15-.09.12.15-.15.15-.15l-2.51-.66c1.75,4.86,2.88,9.9,4.02,14.93.43,1.88,3.32,1.09,2.89-.8-1.14-5.03-2.27-10.07-4.02-14.93-.38-1.05-1.65-1.49-2.51-.66-1.67,1.62-1.94,4.44-2.25,6.62-.21,1.45-.43,2.9-.51,4.37-.1,1.78-.07,3.57-.07,5.36,0,1.93,3,1.93,3,0h0Z"/>
  <path class="cls-1" d="m71.25,290.14c.82-.17,1.64-.4,2.47-.51l-.4.05c.44-.06.88-.08,1.32-.03l-.4-.05h.06c.42.07.78.08,1.16-.14.31-.18.61-.54.69-.9.09-.38.07-.81-.15-1.16-.2-.3-.52-.64-.9-.69-.45-.06-.87-.11-1.32-.08s-.9.1-1.34.18c-.67.12-1.32.3-1.98.44-.35.07-.72.38-.9.69-.19.32-.27.8-.15,1.16.26.81,1.02,1.22,1.85,1.05h0Z"/>
  <path class="cls-1" d="m78.47,280.7c0,1.96.07,3.93.3,5.88.27,2.3.6,5.03,2.17,6.86,1.58,1.84,4.27,1.51,5.53-.49s1.23-4.88,1.2-7.19c-.03-2.52-.4-5.04-.36-7.56.03-1.93-2.97-1.93-3,0s.22,3.87.31,5.79c.05,1.19.08,2.39.03,3.59-.02.55-.06,1.09-.12,1.64-.03.28.06-.35-.02.11-.02.14-.05.28-.07.42-.05.26-.11.52-.18.78-.06.2-.12.39-.19.58.14-.36-.09.16-.13.24-.05.09-.11.17-.17.26.02-.03.21-.27.05-.08-.06.07-.13.13-.2.19.29-.27.11-.09,0-.03-.29.15.32-.16.03-.02-.04.02-.35.06-.09.03s-.04,0-.09,0c-.33-.04.36.08.04,0-.4-.08.25.12-.13-.05-.04-.02-.27-.2-.07-.04s-.09-.11-.13-.14c-.27-.28.07.17-.14-.19-.1-.16-.19-.33-.28-.5-.03-.05-.19-.42-.05-.09-.04-.1-.08-.2-.12-.3-.09-.25-.17-.51-.25-.77-.14-.49-.25-.98-.35-1.48-.11-.56-.18-1.08-.22-1.42-.24-2-.31-4.02-.31-6.03,0-1.93-3-1.93-3,0h0Z"/>
  <path class="cls-1" d="m97.07,276.54c-1.79-.02-3.62-.32-5.06,1.01-1.59,1.47-1.87,4.16-2.04,6.19-.19,2.18-.15,4.48.29,6.63.43,2.09,1.7,3.93,3.95,4.19,2.68.3,3.79-1.92,5-3.86,1.02-1.64-1.57-3.15-2.59-1.51-.44.71-.83,1.6-1.37,2.15-.14.14-.34.25-.42.26-.34.04-.68-.06-.87-.21.16.12-.3-.33-.19-.19-.11-.14-.2-.31-.27-.47-.15-.32-.26-.77-.34-1.16-.2-.95-.24-1.94-.27-2.92-.05-2.03-.03-4.37.78-6.28.06-.15.14-.31.24-.45.01-.02.3-.32.18-.22.04-.03.42-.21.19-.12.06-.02.59-.12.36-.1.8-.09,1.63.05,2.43.05,1.93.02,1.93-2.98,0-3h0Z"/>
  <path class="cls-1" d="m99.27,277.51c0,3.97.11,7.99,1.06,11.87.37,1.53.87,3.24,2.46,3.9,1.25.52,2.58.13,3.79-.3.76-.27,1.27-1.03,1.05-1.85-.2-.74-1.08-1.32-1.85-1.05-.48.17-.96.33-1.45.43-.26.05.34-.03-.09.01-.09,0-.18,0-.26,0,.21,0,.11.05-.04-.02-.2-.1.22.11.01,0-.12-.06.11.15-.06-.05-.16-.17,0,.02-.09-.12-.12-.21-.19-.4-.27-.63-.25-.8-.43-1.62-.59-2.44-.63-3.22-.67-6.52-.67-9.79,0-1.93-3-1.93-3,0h0Z"/>
  <path class="cls-1" d="m101.88,286.24c1.08-.22,2.07-.76,3.07-1.22.32-.15.6-.57.69-.9.1-.36.05-.84-.15-1.16s-.51-.6-.9-.69l-.4-.05c-.27,0-.52.07-.76.2-.47.22-.93.45-1.41.65l.36-.15c-.42.18-.85.32-1.29.41-.35.07-.72.39-.9.69-.19.32-.27.8-.15,1.16s.34.71.69.9l.36.15c.27.07.53.07.8,0h0Z"/>
  <path class="cls-1" d="m100.92,277.94c1.68.06,3.4-.07,4.89-.92.68-.39.97-1.38.54-2.05s-1.32-.95-2.05-.54c-.17.09-.33.18-.51.25l.36-.15c-.48.2-.97.32-1.48.39l.4-.05c-.71.09-1.43.09-2.14.07-.78-.03-1.54.71-1.5,1.5.04.84.66,1.47,1.5,1.5h0Z"/>
  <path class="cls-3" d="m56.57,126.08c-5.84,15.11-19.53,27.54-19.07,44.64.17,6.42,10.17,6.45,10,0-.22-8.32,3.93-15.04,8.29-21.8s7.66-13.03,10.42-20.19c2.32-6.01-7.34-8.61-9.64-2.66h0Z"/>
  <path class="cls-3" d="m41.57,189.39c6.43,0,6.45-10,0-10s-6.45,10,0,10h0Z"/>
  <path class="cls-3" d="m25.68,401.85c-.7,11.15-.25,22.44,1.77,33.44.72,3.89,1.92,8.01,4.74,10.94,3.58,3.72,7.97,2.7,12.07,4.95,5.65,3.09,10.7-5.54,5.05-8.63-1.74-.95-3.34-1.52-5.28-1.93-1.26-.27-3.26-.16-4.35-1-2.6-2-2.76-7.75-3.16-10.67-1.23-8.98-1.41-18.06-.84-27.1.4-6.43-9.6-6.4-10,0h0Z"/>
</svg>