<?xml version="1.0" encoding="UTF-8"?>
<svg id="Layer_1" data-name="Layer 1" xmlns="http://www.w3.org/2000/svg" viewBox="0 0 234.5 455.5">
  <defs>
    <style>
      .cls-1 {
        fill: #b3b3b3;
      }

      .cls-1, .cls-2, .cls-3, .cls-4, .cls-5, .cls-6 {
        stroke: #fff;
        stroke-miterlimit: 10;
      }

      .cls-2 {
        fill: #ed1c24;
      }

      .cls-3 {
        fill: #fff;
      }

      .cls-4 {
        fill: #e6e6e6;
      }

      .cls-5 {
        fill: #ccc;
      }

      .cls-6 {
        fill: #c1272d;
      }
    </style>
  </defs>
  <path class="cls-2" d="m90.97,54.01c-1.22-10.82-2.5-15.88,0-21.51,3.15-7.08,9.69-9.22,17.1-11.65,5.93-1.94,17.71-4.53,31.35.9,6.8,2.7,13.15,5.23,16.39,12.55,3.12,7.04,1.65,14.64.71,20.61-2.53,16.14-1.31,32.87-2.14,49.29-1.04,20.61-2.26,44.55,4.99,70.79,4.61,16.69,10.96,28.26,17.1,39.43,16.01,29.15,23.37,27.8,30.64,46.6,3.39,8.77,3.97,27.17,4.99,63.63,1.34,47.75-.67,40.47.71,68.11,1.64,32.64,4.31,40.3-.71,47.5-7.14,10.22-19.49,4.65-49.16,2.69-24.98-1.65-45.22.37-68.4,2.69-20.6,2.06-41.48-4.04-61.99-.9-1.67.26-6.85,1.12-9.98-2.69-4.09-4.98-2.21-14.99-1.43-19.71.06-.38.52-19.37,1.43-57.35.59-24.49-.98-25.52,0-52.87.51-14.3,1.31-24.18,4.28-35.85,2.59-10.19,4.62-18.17,9.98-25.99,8.58-12.54,15.17-9.29,29.21-24.2,3.77-4,8.96-9.6,13.54-18.82,1.26-2.53,5.45-11.33,8.55-31.36,1.28-8.29,1.82-20.27,2.85-43.91,1.42-32.78,1.46-33.65,1.43-36.74-.21-20.89-.31-31.33-1.43-41.22Z"/>
  <path class="cls-3" d="m98.3,29.67c-1.38,0-1.38,2.69,0,2.69s1.38-2.69,0-2.69Z"/>
  <path class="cls-5" d="m157.35,37.92c-.85-3.23-2.25-6.32-4.36-8.5-.95-.98-1.97-1.78-3.04-2.45-3.97-3.19-8.55-5.2-13.23-5.69-2.07-.83-4.15-1.38-6.36-1.7-2.61-.38-5.26-.38-7.89-.4-2.42-.02-4.84.02-7.25.23-5.88.52-11.79,2.01-16.84,6.02-.17.14-.33.29-.49.46-.17.1-.34.22-.51.33-.02,0-.05.01-.07.02-1.08.34-1.99,1.31-2.56,2.53-.02.03-.05.07-.07.1-1.57,1.32-2.88,3.08-3.68,5.28-.54.96-.76,1.98-.89,3.23-.34,3.23-.02,6.52.5,9.7.23,1.38.51,2.74.81,4.09.15.65.3,1.29.45,1.94-.08.45-.11.88-.12,1.3h-.02c0,.81,0,1.61.01,2.42.01,2.96,1.95,5.31,4.28,5.38,13.26.4,26.52,1.18,39.76,2.33.73.06,1.48-.23,2.15-.74.68.06,1.36.11,2.04.13,1.42.06,2.85.04,4.27-.06,3.05-.2,6.1-.73,9.09-1.52,1.43-.38,2.61-2.03,2.99-3.76,1.45-6.66,2.8-13.88,1.02-20.67Z"/>
  <path class="cls-1" d="m159.65,59.66c-.56-1.21-1.59-1.5-2.56-1.13-.3-.07-.6-.05-.89.08-.36.16-.73.3-1.09.42.55-5.87.59-11.79.07-17.69-.11-1.28-1.72-1.29-1.6,0,.53,6.01.5,12.09-.1,18.08-.67.12-1.34.2-2.03.24-.35-8.08-.42-16.17-.18-24.25.04-1.3-1.56-1.3-1.6,0-.25,8.1-.17,16.21.18,24.3-.68.01-1.36.02-2.04.02.79-4.29.7-8.91.53-13.25-.21-5.42-.85-10.8-1.87-16.07-.24-1.26-1.79-.73-1.55.54.99,5.1,1.61,10.29,1.82,15.53.17,4.35.28,8.98-.58,13.25-.67,0-1.33,0-2,0-.17,0-.34,0-.51,0,0-.28,0-.57,0-.85,0-2.75-.01-5.51,0-8.26.03-5.43.12-10.87.38-16.29.06-1.3-1.54-1.29-1.6,0-.27,5.72-.36,11.45-.39,17.19-.01,2.73,0,5.47,0,8.21-.77,0-1.53,0-2.3-.02,1.07-4.64,1.46-9.52,1.12-14.34-.19-2.65-.57-5.29-1.17-7.84-.63-2.65-1.9-5.26-2.04-8.04-.07-1.29-1.67-1.3-1.6,0,.14,2.65,1.16,4.97,1.81,7.44.69,2.61,1.16,5.31,1.37,8.05.39,4.96-.02,9.95-1.16,14.71-1.02-.02-2.03-.03-3.05-.05-.18-8.43-.21-16.86-.07-25.29.02-1.3-1.58-1.3-1.6,0-.14,8.42-.11,16.84.07,25.25-.74-.02-1.47-.03-2.21-.04l-1.89-.04c.94-9.6,1.32-19.28,1.12-28.95-.03-1.3-1.63-1.3-1.6,0,.19,9.66-.18,19.32-1.12,28.91-.12,0-.23,0-.35,0,.02-.14.02-.3-.02-.48-2-8.62-1.8-17.65-1.57-26.54.03-1.3-1.57-1.3-1.6,0-.23,9.03-.41,18.22,1.61,26.98l-2.99-.06c-.1-3.89.01-7.81.04-11.68.05-6.7.09-13.39.14-20.09,0-1.3-1.59-1.3-1.6,0-.05,6.84-.09,13.69-.14,20.53-.03,3.72-.11,7.47-.02,11.21l-3.36-.07c.44-9.65.4-19.32-.12-28.97-.07-1.29-1.67-1.3-1.6,0,.52,9.63.56,19.3.12,28.93-.76-.02-1.53-.03-2.29-.05.67-10.46.16-20.99-1.5-31.28-.21-1.27-1.75-.73-1.55.54,1.63,10.1,2.1,20.44,1.44,30.71-1.16-.02-2.33-.05-3.49-.07v-26.22c0-1.3-1.6-1.3-1.6,0v26.18c-.52-.01-1.04-.02-1.56-.03-.08,0-.16,0-.24,0-.22-7.32-.26-14.64-.1-21.96.03-1.3-1.58-1.3-1.6,0-.16,7.31-.12,14.61.1,21.91-.54,0-1.07,0-1.6.06-.11.01-.22.02-.33.03-.02-8.06-.03-16.11-.05-24.17,0-1.3-1.61-1.3-1.6,0,.02,8.08.03,16.16.05,24.24-.42,0-.84-.02-1.29-.07-.18-.02-.36-.04-.54-.06-.16-9.34-.33-18.68-.49-28.02-.02-1.3-1.63-1.3-1.6,0l.49,27.85c-.31-.03-.62-.07-.92-.1-2.36-5.88-2.22-12.77-2.05-19.26.03-1.3-1.57-1.3-1.6,0-.17,6.28-.25,12.92,1.69,18.75-.74.02-1.47.04-2.21.05-.35,0-.67.13-.96.32-.29-.04-.58-.08-.88-.1-1.15-.06-2.14,1.28-2.14,2.69,0,1.51.98,2.63,2.14,2.69,1.18.06,2.36.61,3.51,1.09,1.33.56,2.64.99,4.04,1.17,2.43.3,4.92.22,7.38.18.52.6,1.28.8,2.04.66,3.32-.57,6.72.69,10.03.87,1.64.09,3.28.07,4.92.04,0,.03,0,.06.01.09.17,1.12,1.38.84,1.54-.11,1.32-.02,2.63-.04,3.95,0,6.94.19,13.87.64,20.77-.61,3.72-.68,7.3-1.94,10.73-3.88,1.05-.59,1.31-2.52.77-3.68Z"/>
  <path class="cls-6" d="m116.62,253.85c-5.23-.19-16.8-.43-28.5,8.07-15.21,11.04-20.78,29.68-24.23,41.22-3.35,11.22-12.5,41.85,0,72.59,8.36,20.55,21.98,30.3,26.36,33.16,17.94,11.71,45.19,15.16,64.84-4.48,18.92-18.91,20.18-48.6,20.66-60.04.44-10.44.76-50.36-23.51-74.38-15.1-14.94-31.91-16-35.63-16.13Z"/>
  <path class="cls-3" d="m99.84,91.98v23.96c0,5.77,7.13,5.78,7.13,0v-23.96c0-5.77-7.13-5.78-7.13,0Z"/>
  <path class="cls-3" d="m106.91,136.01c-.22-5.74-7.35-5.77-7.13,0,.65,16.68-.34,33.68-2.97,50.06-2.2,13.72-6.02,27.2-14.28,37.02-3.34,3.97,1.71,10.3,5.04,6.34,8.82-10.49,13.41-24.91,15.89-39.6,2.96-17.55,4.14-35.91,3.45-53.81Z"/>
  <path class="cls-3" d="m75.09,232.53c-4.58,0-4.59,8.96,0,8.96s4.59-8.96,0-8.96Z"/>
  <path class="cls-3" d="m64.8,240.94c-4.58,0-4.59,8.96,0,8.96s4.59-8.96,0-8.96Z"/>
  <path class="cls-3" d="m65.18,424.48c-4.69-1.82-9.57-2.84-14.48-2.87-1.88-.01-4.38.75-5.84-1.08-1.36-1.71-1.67-4.93-1.99-7.19-1.92-13.27-1.48-26.95-1.16-40.37.14-5.77-6.99-5.76-7.13,0-.36,15.1-1.39,31.94,2.1,46.61,1.34,5.65,4.2,10.17,9.09,10.9,2.66.4,5.37,0,8.05.24,3.24.3,6.37,1.19,9.46,2.39,4.39,1.7,6.27-6.95,1.89-8.64Z"/>
  <g>
    <path class="cls-4" d="m49.32,318.87l11.46-12.05c.3-.3.45-.59.45-.85,0-.37-.26-.55-.77-.55-.22,0-.37.02-.45.05-.98.13-1.69.2-2.15.2-.97,0-1.46-.58-1.46-1.76,0-1.1.58-1.66,1.75-1.66.62,0,1.18.03,1.67.1l2.15.3c.95.13,1.67.2,2.15.2.98,0,2.18-.13,3.62-.4.73-.13,1.27-.2,1.63-.2,1.03,0,1.54.57,1.54,1.71s-.47,1.71-1.42,1.71h-1.46c-1.03,0-1.95.42-2.76,1.25l-7.68,7.91c-.33.33-.49.63-.49.9,0,.17.13.45.41.85l.61,1.15,6.5,10.91c1.73,2.9,3.03,4.35,3.9,4.35.05,0,.13-.02.24-.05h.2c.73-.1,1.18-.15,1.34-.15.98,0,1.46.57,1.46,1.71s-.53,1.71-1.58,1.71l-2.03-.3c-1-.13-2.14-.2-3.41-.2-1.46,0-2.99.1-4.59.3-1.06.13-1.65.2-1.79.2-1,0-1.5-.54-1.5-1.63,0-1.19.53-1.78,1.58-1.78.3,0,.72.03,1.26.08,1.06.11,1.67.17,1.83.17.65,0,.98-.17.98-.5,0-.23-.12-.55-.37-.95l-7.56-12.71c-.16-.27-.31-.4-.45-.4-.11,0-.28.13-.53.4l-4.27,4.62c-.03.6-.04,1.29-.04,2.06,0,2.91.01,4.47.04,4.67.22,1.91.89,2.86,2.03,2.86.16,0,.46-.05.89-.15.43-.1.8-.15,1.1-.15.35,0,.65.16.89.48.24.32.37.71.37,1.18,0,1.17-.6,1.76-1.79,1.76h-.29c-.11-.03-.2-.05-.28-.05l-2.28-.4c-.57-.1-1.45-.15-2.64-.15-.87,0-1.58.05-2.15.15l-2.24.4c-.05,0-.14.02-.24.05h-.24c-1.22,0-1.83-.59-1.83-1.78,0-1.09.42-1.63,1.26-1.63.24,0,.61.06,1.1.18.33.08.61.12.85.12,1.35,0,2.03-1.26,2.03-3.77,0,.07.01-1.11.04-3.52v-13.11l-.04-3.52c0-2.51-.67-3.77-2.02-3.77-.27,0-.55.04-.85.12-.48.08-.85.12-1.09.12-.86,0-1.29-.55-1.29-1.66,0-1.17.61-1.76,1.82-1.76.13,0,.31.02.53.06l1.94.33c.87.15,1.59.22,2.19.22.73,0,1.82-.1,3.28-.3,1.46-.2,2.3-.3,2.51-.3,1.13,0,1.7.59,1.7,1.76,0,.47-.12.86-.36,1.18s-.54.48-.89.48c-.27,0-.63-.05-1.09-.15-.19-.07-.47-.1-.85-.1-.94,0-1.53.41-1.77,1.23-.24.82-.35,2.82-.32,6v6.23Z"/>
    <path class="cls-4" d="m91.02,321.18c0,1.27-.07,2.05-.2,2.34s-.53.43-1.18.43h-12.92c-.35,0-.58.06-.69.18-.11.12-.16.31-.16.58,0,2.51.61,4.6,1.83,6.28,1.22,1.68,2.74,2.51,4.55,2.51,1.19,0,2.28-.4,3.27-1.21s1.63-1.82,1.93-3.06l.37-1.46c.19-.8.64-1.21,1.34-1.21,1,0,1.5.64,1.5,1.91,0,2.18-.89,4.11-2.68,5.8-1.79,1.69-3.82,2.54-6.1,2.54-2.84,0-5.11-1.18-6.79-3.54-1.68-2.36-2.52-5.53-2.52-9.52s.89-7.4,2.68-9.95c1.79-2.54,4.12-3.82,6.99-3.82,2.55,0,4.65,1.05,6.3,3.16,1.65,2.11,2.48,4.79,2.48,8.04Zm-14.75-1.31c0,.47.3.7.89.7h9.71c.57,0,.85-.23.85-.7,0-1.77-.54-3.31-1.63-4.62-1.08-1.31-2.36-1.96-3.82-1.96s-2.9.68-4.15,2.04c-1.25,1.36-1.87,2.87-1.87,4.54Z"/>
    <path class="cls-4" d="m105.33,329.01v-3.21c.03-1.37.51-2.06,1.46-2.06s1.42.77,1.42,2.31c0,3.65-.38,6.2-1.13,7.63-1.02,1.94-2.71,2.91-5.05,2.91-2.15,0-3.69-.85-4.6-2.56-.67-1.24-1.01-3.35-1.01-6.33v-12.05c0-.7-.26-1.05-.79-1.05h-1.33c-.44,0-.81-.18-1.1-.53s-.44-.78-.44-1.28c0-.47.14-.89.43-1.26.28-.37.6-.55.96-.55h1.58c.46,0,.69-.32.69-.95v-5.17c0-1.27.53-1.91,1.58-1.91.98,0,1.46.64,1.46,1.91v5.37c0,.5.24.75.73.75h4.43c1.03,0,1.54.59,1.54,1.76,0,1.24-.56,1.86-1.67,1.86h-4.47c-.38,0-.57.35-.57,1.05v12.36c0,3.52.95,5.27,2.84,5.27s2.93-1.42,3.01-4.27Z"/>
    <path class="cls-4" d="m122.11,319.37c0-1.34.68-2.11,2.03-2.31-.14-1.17-.59-2.09-1.36-2.76-.77-.67-1.77-1-2.99-1-1.87,0-3.37.92-4.51,2.76-1.14,1.84-1.71,4.29-1.71,7.33s.54,5.62,1.61,7.41c1.07,1.79,2.55,2.69,4.45,2.69,1.19,0,2.23-.42,3.11-1.26.88-.84,1.48-1.99,1.81-3.46.27-1.17.43-1.84.49-2.01.3-.67.73-1,1.3-1,.46,0,.84.18,1.14.55.3.37.45.84.45,1.41,0,.84-.22,1.84-.65,3.01s-.95,2.14-1.54,2.91c-1.6,2.11-3.67,3.17-6.22,3.17-2.76,0-4.99-1.21-6.69-3.62-1.69-2.41-2.54-5.58-2.54-9.49,0-4.15.87-7.48,2.62-9.97,1.75-2.49,4.07-3.74,6.97-3.74,2.17,0,3.97.73,5.41,2.18,1.44,1.46,2.15,3.31,2.15,5.55,0,1.24-.28,2.26-.83,3.06-.56.8-1.27,1.21-2.13,1.21-.68,0-1.24-.25-1.69-.75-.45-.5-.67-1.12-.67-1.86Z"/>
    <path class="cls-4" d="m136.83,303.56l-.16,9.79c1.09-1.27,2.08-2.15,2.98-2.64.9-.49,1.96-.73,3.18-.73,2.34,0,4.21.82,5.62,2.46s2.12,3.8,2.12,6.48v8.39c0,1.98.01,3.06.04,3.26.11,1.67.46,2.51,1.06,2.51.22,0,.53-.09.93-.28.16-.05.38-.07.65-.07,1,0,1.5.57,1.5,1.71s-.65,1.71-1.95,1.71c-.35,0-.87-.05-1.54-.15-1.14-.17-2.06-.25-2.76-.25s-1.25.03-1.63.1c-1.14.2-1.84.3-2.11.3-.49,0-.89-.18-1.22-.53s-.49-.79-.49-1.33c0-.43.14-.8.43-1.1.28-.3.62-.45,1-.45.3,0,.65.08,1.06.25.24.1.47.15.69.15.81,0,1.23-1.09,1.26-3.26,0-.4.03-1.19.08-2.36v-4.87c0-3.42-.27-5.71-.82-6.88-.79-1.74-2.18-2.61-4.16-2.61-2.15,0-3.71.9-4.69,2.71-.68,1.24-1.03,3.23-1.06,5.98v3.62c0,.2-.05.54-.16,1v.95c0,1.91.01,3.01.04,3.32.14,1.64.54,2.46,1.21,2.46.22,0,.54-.08.94-.23.4-.15.7-.23.9-.23.89,0,1.34.54,1.34,1.6,0,1.21-.6,1.81-1.8,1.81-.38,0-.96-.05-1.72-.15-1.04-.13-1.92-.2-2.66-.2-.46,0-1.11.05-1.92.15-1.09.13-1.79.2-2.09.2-1.12,0-1.68-.62-1.68-1.86,0-1.03.52-1.55,1.57-1.55.36,0,.62.05.79.14.47.14.8.21.99.21.44,0,.74-.51.89-1.53s.24-3.11.27-6.25v-8.99c0-5.02-.08-8.2-.24-9.52s-.54-1.98-1.14-1.98c-.19,0-.47.05-.85.15-.38.1-.68.15-.89.15-.92,0-1.38-.54-1.38-1.61,0-.47.16-.87.49-1.21.33-.33.72-.5,1.18-.5.14,0,.6.05,1.38.15.51.07,1.07.1,1.67.1.24,0,.58-.04,1.02-.13.43-.08.75-.12.94-.12.62,0,.93.55.93,1.66v.1Z"/>
    <path class="cls-4" d="m173,334.69v-1.56c-1.44,2.45-3.56,3.67-6.38,3.67-3.2,0-5.42-1.22-6.67-3.67-.54-1.07-.84-2.33-.89-3.77-.03-.7-.04-2.18-.04-4.42v-4.17c0-4.59-.4-6.88-1.19-6.88-.17,0-.42.02-.78.07-.36.05-.63.08-.82.08-.96,0-1.44-.54-1.44-1.63s.58-1.58,1.75-1.58c.27,0,.67.04,1.2.12.53.08.93.13,1.2.13.24,0,.66-.05,1.26-.15.41-.07.64-.1.69-.1.84,0,1.26.64,1.26,1.91v4.32l-.12,3.72v3.26c0,2.91.19,5.01.57,6.28.62,2.11,2.11,3.16,4.47,3.16,1.17,0,2.2-.33,3.09-.98.89-.65,1.52-1.52,1.87-2.59.43-1.3.65-3.78.65-7.43v-6.03c-.14-1.61-.49-2.41-1.06-2.41h-1.22c-.95,0-1.42-.5-1.42-1.51,0-1.14.53-1.71,1.58-1.71.24,0,.62.03,1.12.1.5.07.87.1,1.12.1.22,0,.54-.03.98-.1s.76-.1.98-.1c.81,0,1.22.54,1.22,1.61,0,.47-.03.84-.08,1.11-.14,1.28-.2,3.15-.2,5.64v7.75c0,2.05.01,3.19.04,3.42.14,1.78.51,2.67,1.14,2.67.19,0,.46-.04.81-.13.35-.08.62-.13.81-.13.92,0,1.38.55,1.38,1.66s-.57,1.71-1.71,1.71c-.24,0-.6-.03-1.06-.1-.68-.1-1.1-.15-1.26-.15-.08,0-.37.03-.85.1-.33.1-.61.15-.85.15-.76,0-1.14-.48-1.14-1.46Z"/>
    <path class="cls-4" d="m187.75,312.29v1.61c1.52-2.61,3.59-3.92,6.22-3.92s4.86,1.15,6.46,3.46,2.4,5.44,2.4,9.39c0,4.25-.85,7.64-2.54,10.17-1.69,2.53-3.96,3.79-6.81,3.79-2.36,0-4.27-1.02-5.73-3.06v4.17c0,1.27.03,2.09.08,2.46.16,1.04.56,1.56,1.18,1.56.19,0,.47-.05.85-.15.38-.1.66-.15.85-.15.87,0,1.3.55,1.3,1.66s-.57,1.66-1.7,1.66c-.41,0-1.01-.07-1.82-.2-.59-.1-1.49-.15-2.67-.15-.65,0-1.19.03-1.62.1-1.08.17-1.8.25-2.15.25-.46,0-.85-.17-1.17-.52-.32-.35-.49-.75-.49-1.21,0-1.06.46-1.58,1.37-1.58.16,0,.42.04.76.13.46.11.79.17,1.01.17.51,0,.83-.33.95-.98.12-.65.19-2.47.22-5.45v-19.39c-.03-1.54-.38-2.31-1.05-2.31-.19,0-.48.06-.87.18-.39.12-.69.18-.91.18-.99,0-1.49-.55-1.49-1.66s.6-1.61,1.79-1.61c.3,0,.62.02.98.05.68.07,1.18.1,1.5.1.24,0,.6-.03,1.06-.08.46-.05.8-.07,1.02-.07.68,0,1.02.47,1.02,1.41Zm.61,6.13c-.24,1.31-.38,2.9-.41,4.77,0,.13-.01.39-.04.75v.7c0,2.24.15,3.88.45,4.9.3,1.02.89,1.93,1.77,2.74.88.8,1.97,1.21,3.27,1.21,1.95,0,3.46-.88,4.53-2.64,1.07-1.76,1.61-4.26,1.61-7.51,0-6.7-1.92-10.05-5.77-10.05-1.3,0-2.46.49-3.48,1.46-1.02.97-1.66,2.19-1.93,3.67Z"/>
  </g>
</svg>