<?xml version="1.0" encoding="UTF-8"?>
<svg id="Layer_1" data-name="Layer 1" xmlns="http://www.w3.org/2000/svg" viewBox="0 0 337.5 508.5">
  <defs>
    <style>
      .cls-1 {
        fill: #006837;
      }

      .cls-1, .cls-2, .cls-3, .cls-4, .cls-5 {
        stroke: #fff;
        stroke-miterlimit: 10;
      }

      .cls-2 {
        fill: #009245;
      }

      .cls-3 {
        fill: #9e005d;
      }

      .cls-4 {
        fill: #fff;
      }

      .cls-5 {
        fill: #b12fac;
      }
    </style>
  </defs>
  <path class="cls-5" d="m143.59,194.55c-.37-2.82-1.09-7.25,1-12,.43-.97,2.94-6.42,9-9,4.66-1.98,8.71-1.12,14,0,4.69.99,8.56,1.82,11,5,2.51,3.28,2.17,7.32,2,10-.56,8.99,1.04,17.99,1,27-.05,14-.08,21,2,28,2.87,9.63,8.23,15.32,21,28,28.24,28.04,28.93,26.96,34,33,18.53,22.09,20.11,49.47,21,65,.77,13.45,2.2,46.34-19,78-18.88,28.2-45.1,39.59-58,45-12.43,5.21-72.2,30.25-125-4-41.19-26.71-50.75-71.74-53-86-.46-2.9-8.26-57.59,26-101,14.09-17.85,31.61-29.12,33-30,13.76-8.7,21.83-10.03,52-26,20.13-10.66,25-14.54,27-21,1.98-6.4,2.39-19.3,1-30Z"/>
  <path class="cls-3" d="m151.37,276.15c-9.28,29.53-16.17,59.73-22.98,89.9-3.35,14.84-6.79,29.67-10,44.54-3.14,14.53-5.9,29.2-6.99,44.05-.83,11.27-.63,22.65,1.15,33.79-15.86-18.55-23.13-43.26-23.95-67.41-1.04-30.46,7.51-60.33,17.19-88.9,5.35-15.8,11.45-31.43,19.98-45.82.99-1.66-1.61-3.18-2.59-1.51-7.79,13.14-13.59,27.33-18.62,41.71-5.11,14.6-9.8,29.41-13.31,44.49-6.5,27.87-8.59,57.36.25,84.98,4.14,12.94,10.63,25.12,19.59,35.33-2.03-.9-4.11-1.62-6.22-2.23-10.86-9.29-20.7-19.78-29.2-31.26-5.68-7.67-11.11-15.78-14.81-24.62-3.78-9.03-5.82-18.81-6.95-28.51-2.18-18.72-.54-37.83,4.75-55.91,4.94-16.9,13.14-32.8,24.04-46.63,10.41-13.2,23.14-24.55,37.52-33.27,1.8-1.09,3.63-2.14,5.48-3.15,1.69-.93.18-3.52-1.51-2.59-15.14,8.28-28.74,19.35-39.97,32.46-11.55,13.49-20.55,29.05-26.37,45.84-6.31,18.24-8.89,37.82-7.52,57.07.7,9.82,2.3,19.71,5.3,29.1,3.05,9.55,8,18.21,13.67,26.43,8.42,12.23,18.26,23.46,29.25,33.45-3.78-.85-7.59-1.62-11.3-2.75-6.93-2.12-13.44-5.46-19.34-9.67-11.97-8.53-21.29-20.6-27.41-33.9-7.3-15.88-10.01-33.59-10-50.96.01-17.35,2.49-34.8,6.98-51.55,4.42-16.48,11-32.4,20.11-46.86,1.12-1.78,2.28-3.54,3.48-5.27,1.1-1.59-1.5-3.1-2.59-1.51-9.87,14.34-17.19,30.33-22.21,46.97-5.09,16.85-8.01,34.51-8.65,52.1-.64,17.89,1.38,36.14,7.89,52.91,5.48,14.1,14.23,27.05,25.87,36.78,5.67,4.74,11.95,8.69,18.77,11.56,3.62,1.52,7.35,2.69,11.16,3.59,4.01.95,8.07,1.7,12.04,2.8,1.46,1.24,2.92,2.47,4.41,3.66,1.79,1.43,3.61,2.83,5.45,4.2.63.47,1.24.31,1.65-.1.32,1.21.65,2.42,1.02,3.62.56,1.84,3.45,1.06,2.89-.8-8.57-28.34-4.33-58.37,1.63-86.78,3.11-14.84,6.58-29.6,9.92-44.39,3.35-14.86,6.69-29.72,10.31-44.52,4.07-16.69,8.5-33.29,13.65-49.68.58-1.85-2.31-2.64-2.89-.8Zm-37.25,220.39c-.91-.68-1.79-1.4-2.69-2.1.66-.13,1.17-.69,1.3-1.3.27.29.53.58.8.87.01.01.02.02.03.03.18.84.36,1.67.56,2.51Z"/>
  <path class="cls-3" d="m235.45,335.92c-.58-5.41-1.47-10.78-2.7-16.08-1.07-4.64-2.7-9.05-4.66-13.39-7.45-16.49-19.76-30.78-34.91-40.65-1.89-1.23-3.83-2.39-5.8-3.48-1.69-.93-3.21,1.66-1.51,2.59,15.49,8.56,28.31,21.61,36.72,37.17,2.08,3.85,3.89,7.85,5.39,11.97,1.74,4.8,2.71,9.92,3.54,14.96,1.71,10.41,2.12,21.04,1.32,31.55-.79,10.46-2.87,20.8-6.11,30.78-3.41,10.5-6.93,21-10.71,31.37-3.57,9.81-7.76,19.34-13.24,28.25-5.12,8.33-11.19,16.06-18.06,23.01-13.04,13.2-30,24.51-48.96,25.99-1.2.09-2.41.14-3.61.16,4.57-5.76,9.15-11.52,13.72-17.29,5.63-7.09,11.25-14.18,16.49-21.56,9.48-13.35,17.19-27.74,22.66-43.19,5.24-14.79,8.45-30.26,9.83-45.87,1.38-15.68.86-31.48-1.34-47.06-2.21-15.67-6.18-31.1-11.82-45.89-.7-1.84-1.43-3.67-2.19-5.5-.73-1.76-3.63-.99-2.89.8,5.97,14.43,10.33,29.52,12.99,44.91,2.66,15.38,3.58,31.06,2.69,46.64-.88,15.4-3.59,30.7-8.23,45.41-4.77,15.11-11.65,29.44-20.43,42.63-10.16,15.26-22.09,29.35-33.48,43.69-.6.75-1.2,1.51-1.8,2.26-.58.16-.9.65-.96,1.2-.53.66-1.05,1.33-1.58,1.99-1.19,1.5.92,3.63,2.12,2.12.62-.78,1.24-1.56,1.86-2.34,19.22.58,37.17-9.02,51.24-21.47,15.32-13.57,26.92-30.81,34.65-49.69,4.29-10.48,7.71-21.3,11.34-32.02,1.77-5.22,3.57-10.43,4.94-15.77,1.34-5.19,2.35-10.46,3.06-15.78,1.44-10.75,1.6-21.65.44-32.43Z"/>
  <path class="cls-3" d="m182.58,181.44c-.36-2.76-1.85-5.26-3.44-7.48-1.89-2.63-4.29-4.03-7.49-4.42-2.71-.33-5.5-.23-8.23-.21-5.68.05-11.57.49-16.92,2.57-1.65.64-3.23,1.41-4.15,3.02-.86,1.51-.96,3.38-1.06,5.07-.22,3.52.19,7.08,1.07,10.48.26,1.02.9,1.64,1.65,1.94.39.38.87.67,1.35.78,2.58.6,4.47-1.03,5.34-3.34.62-1.66.77-3.5,1.47-5.12.26-.6.54-1.09,1.01-1.48.02-.01.04-.04.07-.05.09.2.17.38.21.47l1.16,3.26c.99,2.78,4.84,2.91,5.79,0,.35-1.07.85-2,1.43-2.91.48.55,1.05,1.03,1.68,1.39.81.46,1.69.73,2.6.84.19,2.13.29,4.27.3,6.41,0,1.48,1.14,2.77,2.6,2.95,1.6.19,2.7-.73,3.29-2.15.55-1.32,1.1-2.64,1.65-3.96.02-.05.05-.1.07-.15.43.29.89.53,1.39.66,1.66.45,3.4-.34,4.64-1.41,2.03-1.74,2.86-4.54,2.52-7.13Z"/>
  <path class="cls-1" d="m249.82,158.4c.54-1.39-.11-2.78-1.28-3.66-12.63-9.42-26.69-16.85-41.55-22.1-7.33-2.59-14.87-4.63-22.51-6.08-1.91-.36-3.83-.69-5.75-.98-2.34-.35-4.68-.51-6.52,1.26-1.45,1.39-2.1,3.52-2.86,5.33-.89,2.09-1.73,4.2-2.52,6.33-.7,1.89-1.34,3.8-1.94,5.72-.14-6.78-.38-13.56-.76-20.33-.39-6.97-.58-14.16-2.68-20.87-2.06-6.6-5.55-12.65-8.81-18.71-3.86-7.15-7.72-14.31-11.58-21.46-.72-1.33-1.95-1.67-3.07-1.39-.2-1.52-1.33-2.79-2.97-2.79-1.53,0-3.12,1.38-3,3,1.08,14.32-1.07,28.69.25,43,.66,7.18,2.31,14.05,4.91,20.77,1.48,3.83,3.09,7.61,4.72,11.38.13.61.27,1.23.42,1.84-5.25-4.57-10.71-8.9-16.39-12.93-4.68-3.33-9.5-6.46-14.45-9.39-1.27-.75-2.54-1.49-3.83-2.21-1.28-.72-2.6-1.57-4.04-1.92-3.2-.78-6.26,1.48-9.1,2.64-6.2,2.54-12.79,4.3-19.45,5.08-1.34.16-2.51.92-2.87,2.18-.53.35-.95.87-1.15,1.6-.39,1.41.48,3.45,2.1,3.69,11.78,1.74,23.37,4.91,34.34,9.54,10.99,4.63,21.19,10.79,30.83,17.77,5.59,4.05,11.01,8.33,16.42,12.61.13.1.27.2.41.28l.89,2.08c.64,1.49,2.83,1.82,4.1,1.08.34-.2.6-.44.81-.7.31.09.64.14.96.13.01,0,.02.02.03.02,1.28.75,3.44.41,4.1-1.08,4.32-9.71,13.23-16.07,23.24-19,11.74-3.43,24.25-1.63,35.81,2.51,7.11,2.54,13.87,5.96,20.46,9.64,2.76,1.54,5.28-1.63,4.27-3.88Zm-108.13-44.95c-.46.53-.74,1.24-.83,2-.07.59-.1,1.19-.16,1.78-1.04-3.49-1.84-7.05-2.26-10.7-.81-7.03-.68-14.12-.46-21.18.04-1.39.09-2.79.13-4.18,1.12,6.16,2.21,12.33,3.28,18.5.27,4.59.36,9.18.28,13.78Zm-14.84,23.03c-8.3-4.76-16.68-9.63-25.58-13.19-2.11-.84-4.26-1.56-6.44-2.15,2.09-.81,4.14-1.7,6.16-2.66.94-.45,1.17-.53,2.1-.03,1.3.7,2.57,1.44,3.85,2.17,9.72,5.63,18.98,12.06,27.62,19.25,1.32,1.1,2.63,2.22,3.92,3.36-3.86-2.28-7.73-4.52-11.62-6.75Zm17.62-53.84c-.07-.41-.15-.82-.22-1.23.32.6.65,1.2.97,1.79-.22-.22-.46-.42-.75-.57Zm11.56,27.51c-.73,11.27-1.08,22.55-1.07,33.84-2.44-15.12-4.98-30.22-7.63-45.3-.31-4.77-.8-9.53-1.47-14.27,0-.03-.02-.06-.02-.09.07.13.14.25.2.38,3.13,5.79,6.62,11.55,8.89,17.75.73,1.98,1.25,3.98,1.65,6.01-.32.48-.51,1.06-.55,1.68Zm19.24,23.35c.18-.42.66-2.06,1.07-2.28-.17.09.7.15.81.16,1.85.23,3.7.59,5.54.94.71.13,1.42.29,2.12.44-3.66.55-7.06,1-9.81,3.78-.66.67-1.28,1.4-1.86,2.17.67-1.75,1.37-3.49,2.12-5.2Z"/>
  <path class="cls-2" d="m142.77,111.56c.17-.01.35-.04.51-.08,1.71-.47,2.35-2.08,2.1-3.69-1.3-8.16-1.65-16.45-1.18-24.69.09-1.62-1.44-3-3-3-.78,0-1.45.3-1.96.77-1.78-.87-4.45-.02-4.45,2.56,0,6.04.16,12.08.5,18.11.31,5.55.82,11.23,3.68,16.13,1.94,3.33,7.13.32,5.18-3.03-.57-.98-1.01-2.01-1.37-3.07Z"/>
  <path class="cls-2" d="m156.77,120.18c.07-7.36-.66-14.72-2.1-21.94-.25-1.27-1.52-2.1-2.77-2.17-.16-2.22-.24-4.45-.19-6.69.08-3.86-5.92-3.86-6,0-.36,16.96,6.19,33.35,4.88,50.34-.12,1.62,1.47,3,3,3,1.73,0,2.88-1.38,3-3,.45-5.83-.03-11.59-.84-17.32.61-.55,1.01-1.35,1.02-2.22Z"/>
  <g>
    <path class="cls-2" d="m184.83,130.59c-2.81-.16-5.62-.36-8.42-.47-.95-.04-1.9.16-2.71.68-1.01.65-1.54,1.64-1.92,2.75-.51,1.46-.75,2.99-.93,4.52-.08.71.39,1.64.88,2.12.52.52,1.37.91,2.12.88.78-.03,1.58-.29,2.12-.88.56-.61.77-1.25.87-2.06,0-.03,0-.05.01-.07.02-.21.02-.17.01-.07,0-.04.01-.08.02-.12.05-.3.11-.59.17-.89.06-.28.15-.55.22-.83.19.02.35.04.39.04l7.16.4c1.57.09,3.07-1.44,3-3-.08-1.7-1.32-2.91-3-3Z"/>
    <path class="cls-2" d="m176.86,138.06s0,.04-.01.06c0,.05-.01.09-.02.14.02-.07.03-.2.04-.28,0,.02,0,.05-.01.07,0,0,0,0,0,.01Z"/>
  </g>
  <path class="cls-2" d="m138.96,139.07c-6.18-4.9-13.34-8.03-20.12-11.96-3.43-1.98-6.42-4.43-9.65-6.69-3.44-2.41-7.73-3.96-11.91-2.68-3.68,1.13-2.11,6.92,1.6,5.79,3.24-.99,6.27,1.26,8.72,3.13,2.88,2.21,5.79,4.26,8.96,6.06,6.07,3.44,12.66,6.23,18.16,10.59,1.27,1.01,3,1.24,4.24,0,1.04-1.04,1.28-3.23,0-4.24Z"/>
  <path class="cls-4" d="m67.02,293.05c-1.86-1.71-4.51-1.7-6.36,0-15.52,14.26-26.74,33.21-31.97,53.61-1.53,5.96-2.51,12.05-3.04,18.18-.2,2.35,2.21,4.6,4.5,4.5,2.61-.12,4.29-1.98,4.5-4.5.1-1.2.22-2.4.36-3.59.04-.33.08-.66.12-.99,0-.01,0-.02,0-.03,0-.05.02-.1.03-.16.1-.66.2-1.32.3-1.98.4-2.44.89-4.87,1.46-7.27,1.16-4.88,2.67-9.67,4.51-14.33.22-.56.45-1.11.68-1.67.01-.03.02-.06.03-.08.02-.04.04-.08.06-.14.11-.25.21-.49.32-.74.54-1.22,1.1-2.44,1.68-3.64,1.05-2.17,2.17-4.3,3.36-6.39,1.26-2.21,2.6-4.37,4.01-6.48.67-1,1.36-1.99,2.06-2.97.35-.49.71-.97,1.07-1.46.2-.27.4-.53.6-.8.06-.08.1-.13.13-.18.04-.05.08-.1.15-.18,3.5-4.4,7.29-8.54,11.43-12.34,1.74-1.6,1.74-4.77,0-6.36Z"/>
  <path class="cls-4" d="m73.33,463.16c-.65-.21-1.3-.44-1.94-.69-.16-.06-.31-.12-.47-.19-.06-.03-.58-.25-.68-.29-1.23-.56-2.43-1.18-3.59-1.86-1.06-.62-2.09-1.28-3.09-1.98-.42-.29-.82-.59-1.23-.9-.15-.12-.44-.34-.5-.39-.29-.23-.57-.47-.85-.71-2.08-1.76-4.02-3.69-5.84-5.73-.84-.94-1.64-1.9-2.43-2.89-.06-.08-.48-.62-.47-.6-.07-.1-.15-.19-.22-.29-.46-.61-.91-1.23-1.35-1.85-3.18-4.48-5.96-9.24-8.5-14.1-3.02-5.78-5.46-10.82-7.42-16.65-.58-1.73-1.1-3.48-1.53-5.26-.21-.88-.4-1.76-.57-2.65-.08-.44-.15-.89-.23-1.33-.03-.15-.05-.25-.06-.31,0-.05-.01-.14-.03-.27-.21-1.85-.32-3.71-.28-5.57.02-.89.07-1.79.16-2.68.01-.1.05-.41.07-.57.08-.53.17-1.05.28-1.58.45-2.3-.65-4.97-3.14-5.54-2.23-.51-5.05.67-5.54,3.14-2.87,14.59,2.83,28.63,9.3,41.44,5.26,10.41,11.55,20.82,20.31,28.67,5.1,4.57,10.91,8.14,17.43,10.29,2.24.74,5.01-.85,5.54-3.14.56-2.48-.75-4.75-3.14-5.54Z"/>
  <path class="cls-4" d="m211.99,320.55c-2.35,0-4.61,2.07-4.5,4.5.11,2.44,1.98,4.5,4.5,4.5,2.35,0,4.61-2.07,4.5-4.5-.11-2.44-1.98-4.5-4.5-4.5Z"/>
  <path class="cls-4" d="m223.05,339.15c-.73-2.23-3.14-3.92-5.54-3.14-2.23.72-3.93,3.14-3.14,5.54.62,1.9,1.15,3.82,1.57,5.77.21,1.01.4,2.02.56,3.04.02.12.08.58.1.75.05.44.1.89.15,1.33.36,3.83.34,7.7-.08,11.53-.01.11-.11.87-.13,1.08-.05.29-.14.9-.15.99-.16.95-.34,1.9-.54,2.84-.41,1.88-.92,3.74-1.51,5.57-.3.91-.62,1.82-.97,2.72-.04.11-.41,1-.43,1.09-.13.29-.26.59-.39.88-.86,1.88-1.82,3.7-2.88,5.47-1.21,2.02-.52,5.03,1.61,6.16,2.17,1.15,4.87.54,6.16-1.61,8.88-14.85,11.03-33.53,5.62-49.99Z"/>
</svg>