<?xml version="1.0" encoding="UTF-8"?>
<svg id="Layer_1" data-name="Layer 1" xmlns="http://www.w3.org/2000/svg" viewBox="0 0 303.5 455.5">
  <defs>
    <style>
      .cls-1 {
        fill: #999;
      }

      .cls-2 {
        fill: gray;
      }

      .cls-3 {
        fill: #ccc;
      }

      .cls-3, .cls-4 {
        stroke: #fff;
        stroke-miterlimit: 10;
      }

      .cls-4 {
        fill: none;
      }
    </style>
  </defs>
  <path class="cls-3" d="m34.47,59.02c22.02,18.81,43.43,28.37,57.33,33.34,9.63,3.44,67.53,23.23,122.18-.88,0,0,19-5.89,30.59-19.37,3.86-4.49,4.8-9.25,4.8-9.25s.29-1.49.32-2.96c.1-5.48-7.68-17.09-26.31-26.32-12.56-6.22-23.56-8.15-25.77-8.52-43.06-7.22-88.05-1.38-96.41-.25-45.41,6.16-68.46,9.47-75.18,24.57-2.21,4.97-1.12,7.75,0,28.08.85,15.48.44,31,.94,46.5.9,28.03,2.36,92.12,2.82,147.4.36,43.59,12.56,87.92,3.76,130.73-.35,1.71-1.47,6.89.94,12.28,2.84,6.34,11.78,15.68,62.97,19.3,29.1,2.06,55.2-.64,106.2-6.14,24.71-2.66,45.04-5.38,51.69-18.42,2.73-5.36,2.15-10.49,1.88-13.16-2.46-23.87,2.65-48.01.94-71.94-2.88-40.32-4.21-76.61-4.7-97.39-1.09-46.67,1.58-54.29,0-101.77-.89-26.58-2.53-48.26-3.76-62.29"/>
  <path class="cls-1" d="m178.04,47.86c-.39-.35-.8-.61-1.22-.81-6.5-6.77-19.08-7.85-28.06-8.49-8.06-.58-19.39-1.19-26.8,3.18-.96.24-1.92.51-2.86.85-7.58,2.72-10.21,12.54-5.91,18.88,4.47,6.58,15.81,10.14,23.59,11.32,10.43,1.58,21.12-.14,30.36-4.96,6.59-3.44,19.42-12.38,10.9-19.96Z"/>
  <line class="cls-4" x1="58.9" y1="332.75" x2="211.15" y2="186.23"/>
  <line class="cls-4" x1="58.9" y1="360.77" x2="227.13" y2="206.41"/>
  <line class="cls-4" x1="56.08" y1="391.53" x2="223.17" y2="242.68"/>
  <line class="cls-4" x1="87.1" y1="397.68" x2="227.13" y2="273.72"/>
  <line class="cls-4" x1="126.55" y1="397.68" x2="227.13" y2="308.65"/>
  <line class="cls-4" x1="67.36" y1="304.68" x2="162.18" y2="397.68"/>
  <path class="cls-4" d="m64.78,273.72c6.34,4.63,127.09,117.81,127.09,117.81"/>
  <line class="cls-4" x1="64.78" y1="244.9" x2="223.17" y2="385.16"/>
  <line class="cls-4" x1="56.08" y1="211.63" x2="234.18" y2="360.39"/>
  <path class="cls-2" d="m175.91,53.98c-.33-.21-.69-.39-1.11-.53-18.8-6.46-44.96-12.26-61.75,1.6-2.23,1.84-1.75,4.27-.16,5.82.22.36.51.71.88,1.04,3.86,3.44,7.98,6.87,12.83,9.04,5.36,2.4,11,2.8,16.86,2.79,5.76-.01,11.48-.27,16.83-2.46,5.28-2.16,9.72-5.69,14.96-7.93.67-.29,1.18-.66,1.56-1.08,3.67-1.56,3.37-7.44-.91-8.29Z"/>
</svg>