<?xml version="1.0" encoding="UTF-8"?>
<svg id="Layer_1" data-name="Layer 1" xmlns="http://www.w3.org/2000/svg" viewBox="0 0 318.5 312">
  <defs>
    <style>
      .cls-1 {
        fill: #fff;
      }

      .cls-2 {
        fill: #b3b3b3;
      }

      .cls-3 {
        fill: #736357;
      }

      .cls-4 {
        fill: #c69c6d;
      }

      .cls-5 {
        fill: #603813;
      }

      .cls-6 {
        fill: #999;
      }

      .cls-6, .cls-7 {
        stroke: #fff;
      }

      .cls-6, .cls-7, .cls-8 {
        stroke-miterlimit: 10;
      }

      .cls-7 {
        fill: #8c6239;
      }

      .cls-8 {
        fill: #f2f2f2;
        stroke: #ccc;
      }
    </style>
  </defs>
  <polygon class="cls-7" points="41.59 116.05 123.59 94.05 167.25 116.05 211.59 256.05 70.59 298.05 26.59 151.05 41.59 116.05"/>
  <polygon class="cls-6" points="266.59 10.05 317.59 14.05 307.59 80.05 253.59 74.05 266.59 10.05"/>
  <path class="cls-1" d="m98.87,121.6c-4.99-5.44-13.69-6.2-19.79-2.25-.75.49-1.29,1.07-1.66,1.71-1.23.61-2.23,1.66-2.44,3.04-1.13,7.27-.84,15.64,6.31,19.78,6.17,3.58,14.48,2.07,18.66-3.78,3.91-5.46,3.47-13.55-1.08-18.51Z"/>
  <path class="cls-2" d="m289.46,57.56c-3.1,1.73-6.19,3.47-9.29,5.2-1.44-.88-2.87-1.79-4.28-2.73-2.68-1.79-5.19,2.54-2.52,4.32.61.41,1.24.79,1.85,1.18-1.68.94-3.35,1.88-5.03,2.82-2.81,1.57-.29,5.89,2.52,4.32,1.31-.73,2.62-1.47,3.93-2.2-2.94,12.68-7.33,24.97-13.35,36.53-5.59,10.73-13.01,23.84-24.17,29.63-14.19,7.36-25.93-7.35-29.69-19.43-3.67-11.79-3.93-24.46-9.19-35.77-8.16-17.57-30.28-26.72-47.37-16.09-4.74,2.95-10.33,7.91-16.22,4.88-4.13-2.13-6.5-6.86-9-10.56-5.59-8.25-12.94-13.73-23.39-12.91-11.33.89-20.14,8.84-24.54,18.97-5.61,12.92-3.61,27.22,0,40.39.27.97.92,1.5,1.66,1.69.19.86.77,1.64,1.86,2.16,5.11,2.39,5.73,7.19,4.86,12.07-.19-.85-.36-1.71-.51-2.57-.35-2-2.79-3.12-4.61-2.62-2.11.58-2.97,2.61-2.62,4.61.73,4.2,2.02,8.15,3.68,12.06.41.95,1.32,1.52,2.34,1.73,1.87,1.19,4.98.87,6.04-1.86,3.83-9.91,6.59-24.29-5.39-29.9-1.03-.48-2.02-.48-2.88-.18-3.3-12.52-5-26.22,1.34-38.09,5.72-10.71,19.91-18.22,31.15-10.55,7.43,5.08,9.43,15.44,17.49,19.88,9.53,5.26,16.94-3.36,25.03-6.99,10.18-4.56,22.51-.65,30.2,6.85,9.14,8.92,10.47,22.36,12.85,34.25,2.21,11.02,5.7,22.53,15.04,29.61,7.98,6.05,18.04,7.02,26.53,1.41,10.7-7.07,18.04-18.99,23.84-30.13,6.56-12.61,11.33-26.04,14.35-39.92,1.46.82,2.93,1.62,4.43,2.38,2.86,1.46,5.39-2.86,2.52-4.32-1.26-.64-2.5-1.31-3.73-1.99,2.27-1.27,4.54-2.54,6.8-3.81,2.81-1.57.29-5.89-2.52-4.32Z"/>
  <path class="cls-4" d="m79.05,228.01c-3.22,0-3.22,5,0,5s3.22-5,0-5Z"/>
  <path class="cls-4" d="m95.41,256.65c-3.22,0-3.22,5,0,5s3.22-5,0-5Z"/>
  <path class="cls-4" d="m115.87,229.12c-3.22,0-3.22,5,0,5s3.22-5,0-5Z"/>
  <path class="cls-4" d="m148.6,262.97c-3.22,0-3.22,5,0,5s3.22-5,0-5Z"/>
  <path class="cls-4" d="m175,232.84c-3.22,0-3.22,5,0,5s3.22-5,0-5Z"/>
  <path class="cls-4" d="m155.66,207.92c-3.22,0-3.22,5,0,5s3.22-5,0-5Z"/>
  <path class="cls-4" d="m174.26,182.63c-3.22,0-3.22,5,0,5s3.22-5,0-5Z"/>
  <path class="cls-4" d="m161.61,163.29c-3.22,0-3.22,5,0,5s3.22-5,0-5Z"/>
  <path class="cls-4" d="m137.81,171.48c-3.22,0-3.22,5,0,5s3.22-5,0-5Z"/>
  <path class="cls-4" d="m131.49,197.14c-3.22,0-3.22,5,0,5s3.22-5,0-5Z"/>
  <path class="cls-4" d="m144.88,220.57c-3.22,0-3.22,5,0,5s3.22-5,0-5Z"/>
  <path class="cls-4" d="m126.65,249.95c-3.22,0-3.22,5,0,5s3.22-5,0-5Z"/>
  <path class="cls-4" d="m92.06,271.89c-3.22,0-3.22,5,0,5s3.22-5,0-5Z"/>
  <path class="cls-4" d="m72.35,241.03c-3.22,0-3.22,5,0,5s3.22-5,0-5Z"/>
  <path class="cls-4" d="m52.27,183.01c-3.22,0-3.22,5,0,5s3.22-5,0-5Z"/>
  <path class="cls-4" d="m92.81,201.6c-3.22,0-3.22,5,0,5s3.22-5,0-5Z"/>
  <path class="cls-4" d="m89.83,156.23c-3.22,0-3.22,5,0,5s3.22-5,0-5Z"/>
  <path class="cls-3" d="m75.33,198.25c-3.22,0-3.22,5,0,5s3.22-5,0-5Z"/>
  <path class="cls-3" d="m107.68,231.73c-3.22,0-3.22,5,0,5s3.22-5,0-5Z"/>
  <path class="cls-3" d="m144.13,206.44c-3.22,0-3.22,5,0,5s3.22-5,0-5Z"/>
  <path class="cls-3" d="m175.75,237.31c-3.22,0-3.22,5,0,5s3.22-5,0-5Z"/>
  <path class="cls-3" d="m190.25,249.95c-3.22,0-3.22,5,0,5s3.22-5,0-5Z"/>
  <path class="cls-3" d="m189.88,222.06c-3.22,0-3.22,5,0,5s3.22-5,0-5Z"/>
  <path class="cls-3" d="m170.54,216.85c-3.22,0-3.22,5,0,5s3.22-5,0-5Z"/>
  <path class="cls-3" d="m161.99,177.8c-3.22,0-3.22,5,0,5s3.22-5,0-5Z"/>
  <path class="cls-3" d="m130.37,257.02c-3.22,0-3.22,5,0,5s3.22-5,0-5Z"/>
  <path class="cls-3" d="m106.94,273.01c-3.22,0-3.22,5,0,5s3.22-5,0-5Z"/>
  <path class="cls-3" d="m80.53,258.13c-3.22,0-3.22,5,0,5s3.22-5,0-5Z"/>
  <path class="cls-3" d="m67.15,222.43c-3.22,0-3.22,5,0,5s3.22-5,0-5Z"/>
  <path class="cls-5" d="m97.27,218.71c-3.22,0-3.22,5,0,5s3.22-5,0-5Z"/>
  <path class="cls-5" d="m85.37,272.27c-3.22,0-3.22,5,0,5s3.22-5,0-5Z"/>
  <path class="cls-5" d="m81.28,282.31c-3.22,0-3.22,5,0,5s3.22-5,0-5Z"/>
  <path class="cls-5" d="m136.32,263.34c-3.22,0-3.22,5,0,5s3.22-5,0-5Z"/>
  <path class="cls-5" d="m114.38,262.22c-3.22,0-3.22,5,0,5s3.22-5,0-5Z"/>
  <path class="cls-5" d="m131.86,238.05c-3.22,0-3.22,5,0,5s3.22-5,0-5Z"/>
  <path class="cls-5" d="m115.87,207.55c-3.22,0-3.22,5,0,5s3.22-5,0-5Z"/>
  <path class="cls-5" d="m156.78,249.58c-3.22,0-3.22,5,0,5s3.22-5,0-5Z"/>
  <path class="cls-5" d="m172.03,254.41c-3.22,0-3.22,5,0,5s3.22-5,0-5Z"/>
  <path class="cls-5" d="m194.34,240.65c-3.22,0-3.22,5,0,5s3.22-5,0-5Z"/>
  <path class="cls-5" d="m179.09,199.37c-3.22,0-3.22,5,0,5s3.22-5,0-5Z"/>
  <path class="cls-5" d="m139.3,139.12c-3.22,0-3.22,5,0,5s3.22-5,0-5Z"/>
  <path class="cls-5" d="m57.85,217.59c-3.22,0-3.22,5,0,5s3.22-5,0-5Z"/>
  <path class="cls-5" d="m68.26,248.46c-3.22,0-3.22,5,0,5s3.22-5,0-5Z"/>
  <g>
    <path class="cls-8" d="m275.61,42.1c0,1.25.39,1.88,1.18,1.88.12,0,.31-.02.55-.06s.43-.06.55-.06c.2,0,.37.08.52.24.15.16.22.35.22.56,0,.58-.35.88-1.04.88h-.14c-.08-.02-.13-.02-.16-.02l-1.13-.18c-.43-.07-.92-.1-1.45-.1-.58,0-1.1.03-1.55.1l-1.15.18s-.1,0-.16.02h-.16c-.68,0-1.02-.29-1.02-.88,0-.53.25-.8.74-.8.12,0,.31.02.55.06s.43.06.55.06c.77,0,1.15-.63,1.15-1.88v-10.17c0-1.18-.56-1.78-1.68-1.78h-.71c-1.11,0-1.66.58-1.66,1.75,0,.42,0,.7.02.85l.09.93c.02.15.02.36.02.63,0,1.05-.3,1.58-.9,1.58-.57,0-.85-.38-.85-1.15,0-.22.02-.59.05-1.13.05-.8.07-1.31.07-1.53,0-.42-.01-.85-.04-1.3-.05-.88-.08-1.26-.08-1.13,0-.7.29-1.05.88-1.05.21,0,.71.03,1.5.08.08,0,.71.03,1.89.1h2.63c.31,0,1.13-.01,2.46-.04.29,0,.79-.02,1.5-.07.63-.04,1.12-.07,1.47-.07.77,0,1.15.34,1.15,1.03v.05c0,.17-.02.48-.06.93-.04.45-.08.94-.13,1.45v.28c0,.25.02.64.07,1.18.06.7.09,1.14.09,1.3,0,.68-.3,1.03-.9,1.03s-.88-.42-.88-1.26c0-.3.02-.75.07-1.35.05-.59.07-1.04.07-1.35,0-1.16-.61-1.74-1.82-1.74h-.65c-.57,0-.98.13-1.22.39s-.38.69-.42,1.29l-.09,1.75v8.52Z"/>
    <path class="cls-8" d="m293.11,38.04c0,.63-.04,1.02-.12,1.16-.08.14-.3.21-.67.21h-7.34c-.2,0-.33.03-.39.09s-.09.15-.09.29c0,1.25.35,2.3,1.04,3.13s1.55,1.25,2.58,1.25c.68,0,1.3-.2,1.86-.6.56-.4.93-.91,1.1-1.53l.21-.73c.11-.4.36-.6.76-.6.57,0,.85.32.85.95,0,1.09-.51,2.05-1.52,2.89s-2.17,1.26-3.46,1.26c-1.62,0-2.9-.59-3.85-1.77-.95-1.18-1.43-2.76-1.43-4.75s.51-3.69,1.52-4.96c1.02-1.27,2.34-1.9,3.97-1.9,1.45,0,2.64.53,3.58,1.58s1.41,2.39,1.41,4.01Zm-8.38-.65c0,.23.17.35.51.35h5.52c.32,0,.48-.12.48-.35,0-.88-.31-1.65-.92-2.3s-1.34-.98-2.17-.98-1.65.34-2.35,1.01c-.71.68-1.06,1.43-1.06,2.27Z"/>
    <path class="cls-8" d="m304.74,45.73c-1.26,0-2.04-.59-2.33-1.78-.78,1.25-2.02,1.88-3.69,1.88-1.25,0-2.24-.33-2.99-1s-1.12-1.56-1.12-2.68c0-1.39.55-2.4,1.64-3.06.42-.25.77-.41,1.07-.49.3-.08.9-.17,1.81-.29,1.29-.15,2.13-.36,2.53-.63.39-.27.59-.76.59-1.48s-.22-1.22-.66-1.62-1.05-.59-1.83-.59c-.69,0-1.34.21-1.94.63-.23.17-.35.34-.35.53,0,.07.07.15.21.25.21.17.32.45.32.85,0,.33-.11.61-.33.83s-.5.33-.84.33c-.4,0-.74-.15-1-.45-.27-.3-.4-.67-.4-1.1,0-.93.43-1.74,1.28-2.4.85-.67,1.89-1,3.1-1,2.8,0,4.2,1.46,4.2,4.37v5.05c0,.8.02,1.27.05,1.42.09.58.35.87.79.87.54,0,.81-.53.81-1.59v-1.22c0-.53.23-.8.7-.8.5,0,.75.4.75,1.2v1.55c-.03,1.6-.82,2.4-2.35,2.4Zm-2.56-4.98v-1.78c-.34.33-.69.57-1.07.7-.38.13-1.05.25-2.01.35-1.75.18-2.62.88-2.62,2.1,0,.63.21,1.14.63,1.5.42.37,1,.55,1.72.55,1.03,0,1.84-.3,2.43-.91.59-.61.9-1.45.91-2.52Z"/>
  </g>
</svg>